<svg width="193" height="193" viewBox="0 0 193 193" fill="none" xmlns="http://www.w3.org/2000/svg">
<mask id="mask0_715_4624" style="mask-type:alpha" maskUnits="userSpaceOnUse" x="0" y="0" width="193" height="193">
<path d="M192.364 96.4412C192.364 149.46 149.383 192.441 96.3638 192.441C43.3444 192.441 0.36377 149.46 0.36377 96.4412C0.36377 43.4218 43.3444 0.441162 96.3638 0.441162C149.383 0.441162 192.364 43.4218 192.364 96.4412Z" fill="#131210"/>
</mask>
<g mask="url(#mask0_715_4624)">
<path d="M192.364 96.4412C192.364 149.46 149.383 192.441 96.3638 192.441C43.3444 192.441 0.36377 149.46 0.36377 96.4412C0.36377 43.4218 43.3444 0.441162 96.3638 0.441162C149.383 0.441162 192.364 43.4218 192.364 96.4412Z" fill="black"/>
<path fill-rule="evenodd" clip-rule="evenodd" d="M157.963 136.098C163.439 135.164 168.939 134.357 174.462 133.676C176.112 135.175 177.586 136.935 178.359 139.053C179.745 142.085 179.158 145.637 178.043 148.707C177.418 149.736 176.535 150.601 175.722 151.49C174.803 152.704 173.68 153.732 172.439 154.601C171.152 155.099 169.965 155.841 168.67 156.349C165.351 157.324 161.563 157.58 158.488 155.845C158.488 155.845 156.78 154.695 156.205 153.989C155.31 152.54 155.132 150.783 155.659 149.146C156.383 148.087 157.276 147.123 158.322 146.372C158.484 146.644 158.672 146.898 158.886 147.154C157.571 147.558 157.15 148.797 156.837 149.992C157.095 150.676 157.349 151.353 157.587 152.045C158.17 153.38 161.365 155.303 161.897 155.171C163.327 154.929 164.819 154.843 166.11 154.085C166.537 153.817 166.972 153.557 167.413 153.311C169.862 151.285 171.503 148.173 171.07 144.977C170.355 142.969 169.302 140.986 167.601 139.65C166.149 138.378 164.272 137.782 162.58 136.914C161.073 136.476 159.512 136.327 157.963 136.098ZM94.1485 153.136C110.479 147.123 127.23 142.303 144.236 138.716C142.129 139.768 140.04 140.857 138.154 142.296C137.199 143.1 135.79 143.646 135.476 144.985C134.889 147.129 133.975 149.184 132.902 151.141C131.512 153.197 129.695 155.235 127.168 155.794C122.946 156.628 115.123 153.488 115.005 153.478C112.706 152.852 110.501 151.876 108.109 151.579L107.915 151.545C106.939 151.386 105.955 151.345 104.964 151.387C104.058 151.259 103.137 151.275 102.231 151.317L101.084 151.721C97.5164 152.772 94.1399 154.715 91.7865 157.684C91.5438 157.579 91.0669 157.373 90.8285 157.268C92.1179 156.044 93.11 154.569 94.1485 153.136Z" fill="#3CAFFF"/>
<path fill-rule="evenodd" clip-rule="evenodd" d="M49.2539 144.689C62.5445 138.279 76.1734 132.64 90.0673 127.792L90.3154 127.97C91.3909 128.788 92.6337 129.335 93.8265 129.953L93.8776 129.967C94.9474 130.246 96.0165 130.831 97.1077 131.193C97.1077 131.193 98.7467 131.364 99.516 131.682C100.769 131.512 102.342 131.467 103.045 130.198C103.547 129.488 103.402 128.591 103.395 127.795L103.385 127.587C103.243 127.152 103.104 126.713 102.957 126.285C102.725 125.271 103.011 124.318 103.416 123.401C109.747 121.445 116.127 119.65 122.551 118.019C124.085 118.121 125.611 118.237 127.11 118.303C129.878 118.73 132.706 118.653 135.457 119.169L135.537 119.135C136.128 119.336 136.892 119.249 137.867 119.376L137.937 119.342C140.953 119.458 143.974 119.726 147.001 119.567C147.531 119.563 148.057 119.617 148.583 119.719L148.614 119.712C149.296 119.566 149.986 119.496 150.677 119.394C150.88 119.401 151.278 119.42 151.48 119.43C154.802 118.858 158.173 117.945 160.961 115.927C160.961 115.927 163.57 113.822 163.663 112.006C163.281 111.126 162.353 110.638 161.518 110.213C166.253 109.513 171.002 108.901 175.768 108.375C175.955 108.553 176.137 108.735 176.315 108.923C177.156 110.458 176.915 112.268 176.673 113.94L176.287 114.115C175.711 116.059 173.896 117.421 172.501 118.831C167.905 121.952 162.693 123.863 157.534 125.775C152.481 127.664 147.256 129.147 142.352 131.464C140.652 132.418 138.775 133.218 137.48 134.739C136.193 135.97 135.79 137.985 136.544 139.575C137.904 138.708 140.717 136.949 140.717 136.949C142.496 136 144.347 135.201 146.116 134.233C147.815 133.698 149.379 132.821 151.085 132.304C153.561 131.349 156.185 130.974 158.755 130.395C161.112 129.969 164.589 129.906 166.948 129.94C169.663 130.34 170.509 129.453 173.972 133.233L173.963 133.234C174.299 133.524 174.631 133.824 174.952 134.134C169.808 134.753 164.679 135.482 159.563 136.321C158.562 136.181 157.558 136.06 156.567 135.861L156.374 135.821C153.007 136.052 149.613 136.527 146.447 137.822C146.252 137.867 145.872 137.955 145.68 137.996C144.686 138.492 143.688 138.981 142.704 139.495C126.13 143.02 109.815 147.7 93.8838 153.503C94.9742 151.986 96.0821 150.487 97.6107 149.351C99.8543 147.063 105.208 143.433 105.208 143.433C107.755 142.241 110.315 140.829 113.118 140.41C113.118 140.41 116.473 139.557 118.22 139.571C119.49 139.272 120.821 139.335 122.115 139.237L123.146 139.247C124.176 139.26 125.204 139.283 126.228 139.364C127.404 139.353 128.568 139.236 129.735 139.131C130.015 139.012 130.561 138.772 130.842 138.652C131.203 137.277 131.25 135.877 131.165 134.47L131.079 134.289C130.644 133.384 130.131 132.517 129.554 131.707L129.46 131.654C128.454 131.093 126.34 130.431 126.34 130.431C124.864 130.11 123.342 130.183 121.855 129.97C120.645 130.477 115.495 131.297 114.143 131.889C113.678 131.979 107.619 134.101 105.303 135.508C103.434 136.542 101.394 137.249 99.6618 138.529C98.0834 139.679 96.39 140.66 94.8008 141.797C92.0552 143.651 90.0375 146.29 87.8864 148.762C86.6373 150.57 86.2256 152.992 87.3405 154.939C84.3249 156.002 81.1676 155.563 78.2131 154.7C77.849 154.548 73.3559 152.993 71.7028 152.331C70.3088 151.609 68.8254 151.061 67.3458 150.522L67.3143 150.551C64.9272 149.353 62.4274 148.454 59.9477 147.473L59.8963 147.453C57.687 146.622 53.1168 145.311 53.1168 145.311C51.8355 145.058 50.5466 144.858 49.2539 144.689ZM142.579 113.49C144.213 113.166 145.851 112.851 147.478 112.55C146.867 113.293 146.243 114.022 145.614 114.753C144.579 114.379 143.566 113.961 142.579 113.49Z" fill="#FF0003"/>
<path fill-rule="evenodd" clip-rule="evenodd" d="M27.28 125.767C37.9824 120.207 48.9105 115.129 60.0254 110.545C60.1319 111.198 60.293 111.892 60.6267 113.247L60.9931 112.854L60.9746 112.532C60.9326 111.689 60.9283 110.938 60.9291 110.174C64.8866 108.554 68.8674 106.996 72.8686 105.5C73.0557 106.551 73.2527 107.402 73.4331 107.957C73.4661 108.057 73.5564 108.27 73.5695 108.29C73.9786 108.937 74.3145 109.626 74.6673 110.305L74.6702 110.302C75.3931 111.685 77.5062 115.819 77.8259 116.453C77.9999 116.651 78.3615 117.037 78.5407 117.24L78.584 117.308C79.0393 118.021 79.6452 118.616 80.2588 119.202C80.9193 120.223 81.8627 121 82.6718 121.892C84.6681 124.457 87.5883 126.004 90.1813 127.873C76.3412 132.705 62.7692 138.331 49.5447 144.728C47.6305 144.469 45.7075 144.284 43.7843 144.101L43.6339 144.119C43.2832 144.159 41.0988 144.111 41.0988 144.111C38.9864 143.949 36.8674 143.975 34.7589 143.925L34.6542 143.944C24.9509 143.506 16.6312 145.238 13.8376 145.654L13.279 145.738L13.1899 145.878C12.8855 145.908 12.5732 145.944 12.2684 145.995L11.8349 146.074C2.71988 147.752 -6.17779 150.821 -14.4051 155.17C-17.5708 156.829 -20.4659 158.934 -23.5238 160.772C-27.6674 163.893 -31.7694 167.103 -35.4922 170.721C-36.0839 171.28 -36.7592 171.768 -37.3082 172.376C-41.0713 176.749 -44.915 181.06 -48.7141 185.403C-50.9582 188.586 -53.4103 191.606 -55.517 194.893C-56.5452 196.723 -58.0129 198.299 -58.9306 200.187C-59.544 200.972 -60.247 201.717 -60.6446 202.643C-62.9042 205.705 -64.5079 209.169 -66.6479 212.31C-69.0566 216.167 -71.1092 220.222 -73.5322 224.071C-74.9791 226.457 -75.9658 229.151 -77.6933 231.354C-77.6933 231.354 -78.313 232.666 -78.6395 233.296C-80.0631 236.103 -81.4402 238.949 -83.2351 241.563C-83.5252 242.176 -83.8474 242.786 -84.1437 243.402C-85.1283 244.901 -85.8207 246.557 -86.8055 248.048C-88.1716 249.863 -89.2477 251.857 -90.4312 253.787C-92.0223 256.169 -93.5036 258.661 -95.2696 260.901L-95.4418 261.118C-98.4368 264.741 -101.556 268.272 -104.725 271.733L-104.835 271.874C-107.173 274.816 -110.361 276.926 -113.47 278.97C-118.921 282.543 -125.581 284.459 -132.029 283.588C-130.973 282.912 -129.841 282.38 -128.691 281.891L-128.196 281.685C-125.821 279.817 -123.083 278.47 -120.646 276.676C-117.111 273.786 -113.267 271.22 -110.146 267.848C-108.037 266.338 -106.745 263.993 -104.623 262.513C-102.125 259.776 -99.6687 256.991 -97.2891 254.149C-96.1493 251.969 -94.2147 250.394 -92.766 248.441C-92.3119 247.832 -92.0747 247.053 -91.4698 246.576L-91.4112 246.531C-89.9284 244.832 -88.8811 242.814 -87.3462 241.152C-85.7963 238.6 -83.931 236.223 -82.4157 233.644C-79.1827 229.058 -76.0674 224.367 -73.322 219.478C-69.8752 215.028 -67.4453 209.904 -64.1814 205.334C-62.1496 202.371 -60.3757 199.25 -58.4047 196.251C-57.8034 194.958 -56.6138 194.065 -55.9654 192.801C-54.2652 190.368 -52.6971 187.843 -50.8795 185.503C-49.4702 183.593 -46.196 178.742 -45.8023 178.318C-41.9221 173.896 -38.0317 169.485 -34.1646 165.052C-22.7157 156.188 -10.8429 147.98 1.37436 140.453C1.79679 140.282 2.2218 140.115 2.64827 139.95C8.96331 137.801 26.9072 134.616 29.0169 134.32C32.9645 134.126 36.9071 133.477 40.8561 133.652L42.2583 133.616C42.667 133.55 47.4944 133.578 49.8156 133.483C51.4551 133.415 53.0913 133.525 54.7266 133.435C55.1041 133.414 55.4821 133.382 55.8588 133.335C55.8588 133.335 56.7064 133.504 57.0231 133.666L57.6674 133.009C57.1886 133.036 56.721 132.975 56.2556 132.801C55.7555 132.548 54.2715 132.167 52.3954 131.369C52.0031 131.277 51.6102 131.175 51.2138 131.089L51.1688 131.02L51.0767 130.988C51.2574 131.35 46.4556 129.502 45.8291 129.258L45.8061 129.363C44.7231 128.95 43.603 128.62 42.4779 128.354L41.9828 128.237C39.5042 127.65 37.0191 127.095 34.5073 126.685L29.1006 126.022L29.0954 126.028C28.6002 125.941 28.1 125.858 27.6128 125.765C27.6128 125.765 27.4938 125.767 27.28 125.767ZM-66.2254 192.667C-69.4109 197.356 -72.1598 202.344 -75.575 206.877C-75.6129 207.028 -75.6977 207.344 -75.7392 207.502C-76.6054 208.666 -77.3594 209.917 -78.0972 211.171L-78.1931 211.304C-78.6758 211.969 -79.1987 212.63 -79.5534 213.381C-80.5018 215.011 -81.715 216.457 -82.6875 218.068C-86.2454 223.075 -89.3786 228.4 -93.2838 233.144C-94.0772 234.679 -95.4716 235.784 -96.338 237.264C-96.936 238.276 -97.7907 239.096 -98.5258 240.007C-100.495 243.076 -103.055 245.727 -105.536 248.388C-107.331 250.682 -109.339 252.81 -111.243 255.022C-114.709 258.229 -118.051 261.595 -121.675 264.643C-122.709 265.284 -126.27 267.775 -128.953 269.51C-125.434 263.929 -121.799 258.46 -118.036 253.084C-117.804 252.859 -117.592 252.647 -117.4 252.45C-115.169 250.85 -113.813 248.347 -111.557 246.77C-107.873 242.731 -104.401 238.498 -100.682 234.501C-100.682 234.501 -96.7116 230.029 -94.9382 227.794C-93.4819 225.123 -90.9924 223.222 -89.3112 220.715C-88.4885 219.038 -86.8761 217.936 -85.9964 216.307C-85.2931 214.992 -84.1181 214.026 -83.3031 212.796C-80.9374 209.667 -78.8636 206.311 -76.269 203.362C-75.5863 202.419 -74.9019 201.477 -74.2185 200.533C-71.5837 197.867 -68.9165 195.241 -66.2254 192.667ZM161.813 110.364C161.648 110.278 161.484 110.196 161.325 110.114L160.9 110.066C159.903 109.95 158.903 109.84 157.913 110.101C157.24 110.122 156.35 110.793 155.981 109.814C160.544 106.917 166.113 104.49 171.512 105.988L171.627 106.009C172.205 106.12 172.766 106.292 173.338 106.438C174.279 107.076 175.176 107.783 175.983 108.584C171.243 109.09 166.516 109.684 161.813 110.364ZM95.9347 97.6545C108.278 93.8604 120.796 90.6474 133.453 88.0276C135.069 89.8895 136.882 91.8405 137.312 92.123C139.24 93.4908 146.275 97.8819 147.568 99.1127C147.399 99.1653 147.228 99.2169 147.568 99.1127C148.086 99.5647 148.615 100.013 149.096 100.515C149.593 101.709 149.67 103.026 149.753 104.31C149.762 106.579 148.983 108.72 148.203 110.83C147.987 111.353 147.779 111.885 147.586 112.418C147.497 112.527 147.408 112.636 147.318 112.744C145.816 113.02 144.315 113.306 142.814 113.6C141.965 113.205 141.138 112.771 140.333 112.292C139.188 111.947 138.041 111.617 136.905 111.223C134.938 110.562 132.802 110.787 130.745 110.773C130.946 110.582 131.343 110.205 131.546 110.015C132.557 108.061 132.743 105.575 131.198 103.884L131.058 103.794C129.614 102.873 128.028 102.185 126.417 101.613C126.417 101.613 118.635 100.357 114.752 100.063C112.514 99.9306 106.699 99.5027 106.183 99.4089C103.458 99.2532 100.727 98.8828 98.085 98.2379L97.8298 98.1739C97.5653 98.1101 96.8657 97.9267 95.9347 97.6545ZM103.357 123.539C103.508 123.18 103.681 122.828 103.852 122.481C104.619 121.385 105.749 120.674 106.818 119.924C111.852 117.375 117.48 117.671 122.958 118.047C116.38 119.703 109.846 121.534 103.357 123.539Z" fill="#59BD00"/>
<path fill-rule="evenodd" clip-rule="evenodd" d="M-116.266 251.505C-120.279 257.152 -124.169 262.931 -127.93 268.841C-129.429 269.831 -130.801 270.702 -131.551 271.07C-134.933 273.012 -138.608 274.457 -142.427 275.185C-143.904 275.399 -145.391 275.891 -146.882 275.549C-145.856 274.701 -144.728 273.955 -143.504 273.442L-143.269 273.268C-140.833 271.475 -138.072 270.137 -135.802 268.116C-133.98 266.759 -121.337 256.501 -117.4 252.45C-116.998 252.16 -116.622 251.842 -116.266 251.505ZM27.1309 89.857C39.8154 83.8755 52.7646 78.5052 65.9276 73.7603C65.4603 74.7246 64.9994 75.6914 64.5364 76.6564C63.7191 78.8137 62.9528 80.9964 61.9556 83.0887L61.873 83.468C61.0107 87.388 59.907 91.2725 59.5068 95.2737C59.507 95.9272 59.4866 96.5764 59.3978 97.2301L59.418 97.2187C59.4922 98.4577 59.6252 106.169 59.7188 107.413L59.686 107.414C59.9061 109.637 59.9198 110.154 60.1878 111.39C49.4956 115.789 38.9806 120.644 28.664 125.953C28.3115 125.892 27.959 125.831 27.6128 125.765C27.6128 125.765 21.4534 125.83 18.518 125.424C16.5782 125.717 14.6041 125.652 12.6633 125.952C11.4234 126.201 10.173 126.433 8.91765 126.455L8.79646 126.458C7.63888 126.822 6.46154 127.105 5.27392 127.304C1.3286 128.359 -2.56876 129.603 -6.34658 131.179C-8.50983 132.465 -10.9391 133.237 -13.02 134.69C-17.372 136.958 -21.2345 140.035 -25.1131 143.023C-26.966 144.362 -28.4176 146.172 -30.2162 147.578L-30.1261 147.526C-31.5767 149.202 -34.5668 151.371 -35.8509 152.963C-39.3949 157.06 -43.0238 161.081 -46.5485 165.206C-47.6164 167.231 -49.4502 168.705 -50.5436 170.718C-52.2729 172.737 -55.7884 177.695 -55.8103 177.864C-57.5098 179.502 -58.6009 181.596 -59.9083 183.529C-62.005 186.094 -63.4632 189.104 -65.5475 191.683C-66.3376 192.812 -67.0973 193.962 -67.8426 195.12C-71.0348 198.21 -74.1816 201.358 -77.2858 204.568C-76.9551 204.16 -76.617 203.757 -76.269 203.362C-72.3226 197.915 -68.3563 192.475 -64.5979 186.887C-62.3392 184.249 -60.4983 181.308 -58.3941 178.556C-58.0198 177.483 -53.1796 170.917 -51.9047 169.553C-50.1215 166.454 -47.1704 164.237 -45.3539 161.159C-42.8463 158.287 -40.3959 155.354 -37.7721 152.587L-37.6774 152.455C-35.6749 149.677 -32.8453 147.669 -30.7614 144.961C-27.3797 141.639 -23.794 138.525 -20.0899 135.578C-19.2479 134.917 -18.4597 134.201 -17.7197 133.434L-17.4257 133.32L-16.9401 132.975C-15.8083 132.165 -14.6739 131.349 -13.5182 130.583C-12.6912 129.948 -11.8385 129.364 -10.991 128.786C-9.69394 127.862 -8.29214 127.105 -6.91608 126.298C-1.12439 122.852 5.08288 119.97 11.5972 118.307L11.5722 118.18C16.6513 116.964 21.8198 116.052 27.038 116.053C28.0122 116.117 30.1183 116.223 30.1183 116.223C31.6468 116.068 33.1537 116.396 34.6562 116.549C35.2886 116.64 35.9084 116.741 36.5351 116.858L37.6629 116.945L37.669 116.935C37.7625 116.982 37.8553 117.023 37.9465 117.062C38.0095 116.881 38.0671 116.697 38.0494 116.452L37.3047 116.047C36.7776 115.717 36.2449 115.399 35.6748 115.162C35.2684 114.859 34.3473 114.376 34.3473 114.376C32.8956 113.764 31.3707 113.352 29.9181 112.757C24.8781 110.927 19.496 110.108 14.1114 110.076C12.3177 110.201 10.5252 110.357 8.73406 110.477C2.77988 111.184 -2.94317 113.258 -8.42519 115.677L-8.69749 115.814C-14.424 118.713 -19.833 122.217 -24.882 126.188C-28.1185 129.061 -31.6492 131.614 -34.636 134.77C-36.8106 136.449 -38.2227 138.736 -40.4048 140.559C-42.6215 143.084 -48.8391 149.773 -50.5755 152.479C-54.7639 157.214 -70.761 180.372 -74.7159 185.483C-75.1411 186.893 -76.6274 187.649 -77.0488 189.067C-81.6653 194.623 -85.0636 201.103 -89.8907 206.493L-89.911 206.568C-90.3508 208.142 -96.3868 215.623 -98.4945 217.993C-99.8093 220.368 -102.005 222.097 -103.356 224.464C-107.362 229.009 -111.272 233.658 -115.399 238.09C-115.853 238.5 -116.337 238.904 -116.772 239.348C-120.293 243.233 -124.353 246.566 -128.299 250.008C-129.739 251.255 -137.022 255.847 -138.94 256.745C-144.462 259.696 -151.04 260.679 -157.062 259.162C-156.234 258.469 -155.153 258.383 -154.168 258.092C-152.705 257.717 -144.196 254.186 -141.594 252.472C-139.967 251.674 -134.283 247.746 -132.98 246.884C-131.132 245.457 -129.158 244.175 -127.516 242.501C-125.996 241.449 -124.721 240.09 -123.247 238.975C-121.068 237.053 -118.908 235.1 -116.9 232.993C-114.09 230.756 -112.083 227.71 -109.559 225.168C-107.132 223.587 -101.156 216.194 -100.103 214.821C-97.8243 210.869 -93.889 208.101 -91.6191 204.176C-89.2866 201.743 -87.6235 198.8 -85.2547 196.403C-85.2335 196.227 -85.1801 195.875 -85.1536 195.702C-84.5529 195.024 -83.9391 194.377 -83.3826 193.677C-81.6277 190.941 -79.5106 188.453 -77.7017 185.758C-73.3392 180.376 -69.7004 174.439 -65.5213 168.913C-65.0085 167.278 -57.5329 157.902 -55.0501 154.39C-52.5966 151.617 -47.7004 146.054 -47.7004 146.054L-47.6771 146.025C-47.6771 146.025 -39.9792 138.068 -36.1858 134.001C-34.1042 132.045 -31.9322 130.187 -29.9955 128.082C-27.0812 125.581 -24.2194 122.996 -21.1308 120.708L-20.9782 120.556C-17.7856 117.375 -13.7833 115.232 -10.3252 112.388C-8.38167 110.934 -6.16991 109.92 -4.22767 108.469C-0.523852 106.12 3.46082 104.282 7.36033 102.311C9.84759 101.483 12.2247 100.351 14.7237 99.5595C17.3443 98.8419 19.9945 98.2042 22.6813 97.8688C28.0952 97.1445 33.7406 97.6332 38.7818 99.6694C38.4986 99.037 38.2164 98.4162 37.9086 97.8038C37.1538 96.0842 35.4685 95.1208 34.4407 93.6128C33.099 92.9944 32.1531 91.7861 30.8173 91.1598C29.8921 90.8068 28.9856 90.4298 28.092 90.0154C28.092 90.0154 27.7216 89.9526 27.1309 89.857ZM-56.5446 141.443C-56.7686 141.875 -56.9899 142.308 -57.2079 142.743C-58.5304 145.036 -59.758 147.371 -61.0093 149.699C-62.361 152.935 -64.5157 155.766 -65.8403 159.003C-66.4134 160.02 -67.0033 161.032 -67.557 162.063C-68.9978 164.448 -70.3224 166.907 -71.6325 169.368C-73.6652 172.296 -77.9439 179.836 -78.4158 180.461C-80.6403 183.467 -82.4784 186.772 -84.9883 189.563C-85.0176 189.736 -85.0724 190.084 -85.101 190.265C-87.0763 192.045 -88.1332 194.526 -90.0123 196.377C-91.197 197.582 -92.0878 199.152 -93.6143 199.967C-94.5975 200.825 -95.2127 202.247 -96.4517 202.729L-96.5112 202.751C-98.3856 204.77 -100.65 206.356 -102.767 208.102C-104.136 208.858 -110.777 212.132 -112.686 212.919C-114.599 213.355 -116.537 214.103 -118.507 213.815C-117.382 212.912 -116.202 212.073 -115.142 211.084C-115.142 211.084 -106.47 204.303 -103.905 202.384C-101.372 199.829 -98.3228 197.88 -95.7095 195.408C-94.5661 194.565 -93.7057 193.354 -92.4662 192.645C-90.1247 190.092 -78.9393 176.961 -78.5682 175.887C-77.9518 175.096 -77.2971 174.335 -76.8443 173.438C-76.1914 172.421 -73.1704 167.478 -72.3059 166.398C-71.9497 165.66 -71.5047 164.963 -71.1237 164.242C-69.7213 161.995 -68.691 159.543 -67.2382 157.323C-66.7551 156.443 -66.2404 155.563 -65.7986 154.659C-64.4705 151.865 -62.9315 149.167 -61.4475 146.446C-61.1535 145.833 -60.8339 145.23 -60.5459 144.616C-59.2225 143.554 -57.8957 142.501 -56.5446 141.443ZM-36.6175 167.857C-35.2656 166.314 -33.9151 164.768 -32.57 163.219C-31.5154 161.999 -30.2712 160.961 -29.0599 159.892C-27.3989 156.844 -21.1403 153.515 -18.1201 151.053C-16.8014 149.978 -15.2816 149.208 -13.9219 148.202C-11.8171 146.564 -9.23502 145.758 -7.04817 144.24C-3.86792 142.691 -0.652299 141.225 2.64827 139.95C3.23702 139.75 3.92557 139.54 4.69401 139.325C-9.58928 147.938 -23.3888 157.456 -36.6175 167.857ZM75.9608 70.2794C90.9055 65.2934 106.107 61.1049 121.5 57.7321C121.881 58.2025 122.204 58.7183 122.522 59.3699C122.584 59.4955 122.621 59.5932 122.641 59.6694C123.049 60.4464 123.291 61.3895 123.314 62.4043C123.329 63.0407 123.67 63.6265 123.834 64.2445C124.003 65.0988 124.183 65.9472 124.377 66.792L124.431 67.0179C124.695 68.145 125.355 71.0142 125.355 71.0142C125.466 71.8008 125.93 73.5357 126.684 76.3559L126.682 76.3596C126.868 76.7622 127.061 77.17 127.239 77.583C128.162 80.3098 129.586 82.8108 131.141 85.2147C131.759 86.0566 132.965 87.4846 134.153 88.8258C121.811 91.3538 109.59 94.4463 97.523 98.0954C95.7191 97.6264 88.6646 95.6272 86.7516 93.6176L86.5828 93.487C84.8498 92.1228 83.4746 90.3431 82.6432 88.2844L82.5963 88.159C82.361 87.5269 82.1666 86.8971 81.9182 86.2747C81.9182 86.2747 81.7157 84.6753 81.64 83.8824C81.3813 81.4803 82.2541 79.1491 83.1481 76.9546C85.1801 73.0531 88.5298 69.6547 92.7785 68.2961C94.4384 67.6732 96.1832 68.2196 97.8124 68.5777C97.4149 69.334 96.9064 70.0523 96.5964 70.8567C96.3106 71.7924 96.6409 72.7356 96.8798 73.6312C97.2751 74.3738 98.0049 76.3615 101.461 79.7264C103.281 81.261 106.518 83.5268 106.518 83.5268C107.86 83.9119 109.213 84.2959 110.625 84.3417L110.749 84.2998C111.367 84.0877 111.972 83.8521 112.577 83.6073C112.675 83.0797 112.774 82.5538 112.883 82.0241L112.85 81.5468C112.774 80.4317 112.164 78.3176 112.164 78.3176C111.804 76.5707 110.86 75.0568 110.042 73.5118L109.979 73.4214C108.628 71.5076 105.216 68.6885 105.216 68.6885C103.076 67.2786 100.536 66.6195 97.9655 66.6459L97.8437 66.6472C95.5908 66.6679 93.4441 67.4205 91.2958 68.0267C89.2156 69.1746 86.8987 69.9363 85.0623 71.5017C83.0019 73.0533 81.218 74.9179 79.2905 76.6184C77.7358 78.9282 76.3625 81.3791 75.0302 83.8294C74.1595 85.4941 73.6991 87.2852 73.0157 89.0316C72.8745 89.4045 72.7528 89.7796 72.6396 90.1589C71.5052 94.8999 72.2479 102.544 73.0316 106.356C68.9784 107.867 64.9469 109.442 60.9338 111.084C60.9217 110.096 60.9404 109.158 60.9134 108.048L61.3612 98.1639L61.3668 98.1615C61.6746 95.2649 62.9209 92.3444 63.6531 89.5428C64.7101 86.9035 65.5596 84.1516 67.1388 81.749C68.4975 79.1706 70.2495 76.8227 71.998 74.5095C72.6126 73.0463 74.0792 72.3431 75.086 71.2023C75.3641 70.8811 75.6579 70.5743 75.9608 70.2794Z" fill="#FFC600"/>
<path fill-rule="evenodd" clip-rule="evenodd" d="M40.1735 63.9214C54.7768 57.8724 69.6906 52.5724 84.8655 48.043C83.9143 48.4052 83.0671 49.0205 82.4673 49.8886C80.3595 52.3861 69.1039 67.6137 69.1039 67.6137C67.9254 69.6895 66.8616 71.8241 65.8255 73.9704C52.8189 78.687 40.038 84.0106 27.5317 89.9225C26.066 89.6828 22.0874 89.052 20.1051 88.9258C17.4415 88.8827 14.7841 89.1576 12.1616 89.6732C12.1616 89.6732 5.02272 91.1574 1.71634 92.5221C-1.32222 93.5542 -4.27061 94.8439 -7.22952 96.0945C-7.30307 96.1239 -7.37501 96.1538 -7.22952 96.0945C-12.0263 98.3875 -16.5837 101.128 -21.0899 103.954C-27.4676 108.008 -33.3358 112.819 -38.8761 117.952C-40.5091 119.144 -41.482 121.012 -43.1594 122.166C-44.6585 123.479 -45.8751 125.094 -47.1573 126.62C-47.7763 128.395 -49.6575 129.369 -50.311 131.138C-52.8605 134.579 -54.9675 138.34 -56.9068 142.149C-58.2376 143.196 -59.5623 144.251 -60.8893 145.319C-60.7645 145.073 -60.643 144.825 -60.5251 144.575C-59.4147 142.361 -57.9612 140.358 -56.6647 138.26C-56.3127 137.601 -55.8816 136.994 -55.4759 136.384C-53.4551 133.454 -51.6686 130.334 -49.1944 127.757C-45.6942 123.797 -42.2436 119.797 -38.7335 115.866C-37.6458 114.952 -36.5783 114.005 -35.6216 112.956C-34.8357 112.544 -34.2649 111.853 -33.6341 111.256C-32.6837 110.64 -31.9604 109.756 -31.034 109.119C-27.9629 106.405 -18.5712 99.8836 -17.1938 99.0615C-7.55961 92.8485 2.96873 88.0387 13.9188 84.8096C13.7179 84.9276 13.6177 84.9871 13.9188 84.8096C19.5291 83.3159 25.2653 81.8032 31.0885 82.1058C35.7689 81.9195 40.4267 81.3625 45.0412 80.5063C47.2693 79.7328 49.573 79.1902 51.6097 77.946C52.5479 77.2712 53.4592 76.5565 54.226 75.6965C54.4302 74.5895 54.9595 73.4114 54.4191 72.3249C53.5491 70.2723 51.8248 68.7214 50.0853 67.388C49.561 67.2132 49.0933 66.9461 48.6843 66.5793C46.8434 65.0049 44.3475 64.5494 42.0334 64.0505C41.411 63.9158 40.7908 63.8834 40.1735 63.9214ZM75.7283 70.5105C77.1248 69.0968 78.7752 67.957 80.2965 66.6799C82.2302 64.9025 84.5493 63.6811 86.7657 62.3162C93.4351 58.6833 100.79 56.3865 108.295 55.5227L108.424 55.4042C112.346 55.1392 116.492 54.5758 120.119 56.3869L120.206 56.4301C120.746 56.8962 121.177 57.3213 121.55 57.794C106.044 61.2131 90.7512 65.46 75.7283 70.5105ZM85.7156 47.7897C90.7203 46.3062 95.7501 44.9074 100.818 43.59C100.737 43.8959 100.656 44.2029 100.579 44.5106C100.209 45.8767 98.261 50.7477 97.519 51.4789C97.1818 51.8139 96.8883 52.1882 96.628 52.5958C94.4086 55.619 90.1871 55.4081 86.8848 55.114C88.5349 54.0737 90.0361 52.8146 91.2299 51.2597C91.2076 50.6225 91.1922 49.9916 91.1728 49.3518C89.8381 47.8926 87.6618 47.3656 85.7156 47.7897ZM31.2197 67.7399C27.7709 70.4259 24.7121 73.6235 21.4312 76.5109C19.0311 78.8081 16.142 80.4856 13.3521 82.2592C10.9158 83.4772 8.46889 84.7953 5.78007 85.3265L5.63914 85.4965C3.87842 86.0136 2.0813 86.3927 0.330443 86.9505C-0.307835 87.1593 -0.96453 86.9493 -1.58091 86.8133C-0.723265 86.322 0.233324 86.0661 1.17658 85.8253C2.3238 85.1484 3.57512 84.7125 4.78366 84.1667C8.29608 82.316 11.6554 80.0879 14.485 77.2869C15.394 76.2325 16.3229 75.1932 17.2481 74.1516C21.8706 71.9371 26.5294 69.7996 31.2197 67.7399Z" fill="#FF6700"/>
<path fill-rule="evenodd" clip-rule="evenodd" d="M16.9999 74.432C19.5991 71.5113 22.1915 68.5842 24.2744 65.2703C24.6201 64.827 29.999 57.4752 32.5842 54.5288C34.0648 52.861 36.395 52.6065 38.4409 52.1855C40.9714 52.0611 43.4665 52.5607 45.9837 52.7127L46.454 52.7851C48.8054 53.1537 59.9577 54.9748 63.1589 54.3995C65.1089 54.2787 66.9901 53.627 68.6822 52.6493C69.6214 51.831 69.6202 50.5006 70.0426 49.4153C69.8241 47.5578 70.1643 45.6984 70.0032 43.8503C69.8203 41.9163 70.2072 39.9172 71.0973 38.1817C72.629 36.1749 74.4563 33.9506 77.0436 33.4305C76.6733 35.2301 76.9501 37.045 77.3672 38.7883C78.0549 39.8319 78.9061 40.7327 79.8685 41.5322C81.0628 40.2581 82.0899 38.8143 83.4103 37.6736C88.8884 33.7174 95.0216 30.8732 100.787 27.3847C102.794 26.1307 105.041 25.2745 106.91 23.8158C107.082 23.9597 107.422 24.2451 107.597 24.3919C106.326 25.8225 105.93 27.7286 105.072 29.3798C104.177 31.0645 102.629 36.1408 102.487 36.9937C102.085 39.2977 101.365 41.5291 100.765 43.7934C96.0735 45.0026 91.3949 46.2897 86.7231 47.6561C85.7659 47.7042 84.8196 47.9715 84.0047 48.46C69.3594 52.8425 54.851 57.9873 40.5392 63.9068C38.7558 63.9313 36.9936 64.5789 35.2623 64.993C33.687 65.8973 32.2162 66.9403 30.8065 68.0655C26.1829 70.1042 21.5799 72.2267 16.9999 74.432Z" fill="#877DE5"/>
</g>
</svg>
