<?xml version="1.0" encoding="utf-8"?>
<!-- Generator: Adobe Illustrator 24.1.2, SVG Export Plug-In . SVG Version: 6.00 Build 0)  -->
<svg version="1.1" id="Слой_1" xmlns="http://www.w3.org/2000/svg" xmlns:xlink="http://www.w3.org/1999/xlink" x="0px" y="0px"
	 viewBox="0 0 311 312" style="enable-background:new 0 0 311 312;" xml:space="preserve">
<style type="text/css">
	.st0{fill-rule:evenodd;clip-rule:evenodd;fill:none;}
	.st1{fill-rule:evenodd;clip-rule:evenodd;fill:#131210;}
	.st2{fill:#D9D9D9;}
</style>
<path class="st0" d="M311,311.7H0V0.7h311V311.7z"/>
<path class="st1" d="M238.1,60.1l-44.2,44.2L179,89.5l59.4-59.4L253.2,45l44.2-44.2l14.8,14.8L252.9,75L238.1,60.1z M200.3,60
	c0.9,0,1.3-1.1,0.7-1.7L143.8,1c-0.4-0.4-1-0.4-1.4,0l-29.8,29.8c-0.4,0.4-1,0.4-1.4,0l-7.3-7.2c-0.4-0.4-1-0.4-1.4,0L67.3,58.3
	C66.7,58.9,67.1,60,68,60l72.7,0c0,0,0,0,0,0s0,0,0,0H200.3z"/>
<path class="st2" d="M189.9,22.1l96.8,96.8L251.3,251l-132.2,35.4l-96.8-96.8L57.8,57.5L189.9,22.1z"/>
</svg>
