<?xml version="1.0" encoding="utf-8"?>
<!-- Generator: Adobe Illustrator 24.1.2, SVG Export Plug-In . SVG Version: 6.00 Build 0)  -->
<svg version="1.1" id="Слой_1" xmlns="http://www.w3.org/2000/svg" xmlns:xlink="http://www.w3.org/1999/xlink" x="0px" y="0px"
	 viewBox="0 0 311 312" style="enable-background:new 0 0 311 312;" xml:space="preserve">
<style type="text/css">
	.st0{fill:#FFFFFF;}
	.st1{fill:#D9D9D9;}
</style>
<path class="st0" d="M285.7,10.7l-59.7,45l20.5,5.5l-19.9,42.4l59.7-45l-20.5-5.5L285.7,10.7z M51,51.7h105v210H51V51.7z"/>
<path class="st1" d="M23,127.9c0-2.2,0.9-4.2,2.4-5.8L125.1,26c1.5-1.4,3.5-2.2,5.6-2.2H184c2.2,0,4.2,0.9,5.8,2.4l97,100.4
	c1.4,1.5,2.2,3.5,2.2,5.6V184c0,2.2-0.9,4.2-2.4,5.8l-101.2,97.7c-1.5,1.4-3.5,2.2-5.6,2.2h-51.8c-2.2,0-4.2-0.9-5.8-2.4l-97-100.4
	c-1.4-1.5-2.2-3.5-2.2-5.6V127.9z"/>
</svg>
