<?xml version="1.0" encoding="utf-8"?>
<!-- Generator: Adobe Illustrator 24.1.2, SVG Export Plug-In . SVG Version: 6.00 Build 0)  -->
<svg version="1.1" id="Слой_1" xmlns="http://www.w3.org/2000/svg" xmlns:xlink="http://www.w3.org/1999/xlink" x="0px" y="0px"
	 viewBox="0 0 311 312" style="enable-background:new 0 0 311 312;" xml:space="preserve">
<style type="text/css">
	.st0{clip-path:url(#SVGID_2_);}
	.st1{fill:#131210;}
	.st2{fill:#D9D9D9;}
</style>
<g>
	<defs>
		<rect id="SVGID_1_" y="0.7" width="311" height="311"/>
	</defs>
	<clipPath id="SVGID_2_">
		<use xlink:href="#SVGID_1_"  style="overflow:visible;"/>
	</clipPath>
	<g class="st0">
		<path class="st1" d="M232.8,34.9c-0.7-0.9,0.5-2.1,1.4-1.4l17.3,12.4c0.3,0.2,0.8,0.2,1.2,0L270,33.5c0.9-0.7,2.1,0.5,1.4,1.4
			l-12.4,17.3c-0.3,0.3-0.3,0.8,0,1.2l12.4,17.3c0.7,0.9-0.5,2.1-1.4,1.4l-17.3-12.4c-0.3-0.2-0.8-0.2-1.2,0l-17.3,12.4
			c-0.9,0.7-2.1-0.5-1.4-1.4l12.4-17.3c0.3-0.3,0.3-0.8,0-1.2L232.8,34.9z M62.6,267.7c0.7,2.6-2.5,4.4-4.3,2.5L36,247.9
			c-0.7-0.7-1.6-0.9-2.5-0.7l-30.4,8.1c-2.6,0.7-4.4-2.5-2.5-4.3l22.3-22.3c0.7-0.7,0.9-1.6,0.7-2.5l-8.1-30.4
			c-0.7-2.6,2.5-4.4,4.3-2.5L42,215.5c0.7,0.7,1.6,0.9,2.5,0.7l30.4-8.1c2.6-0.7,4.4,2.5,2.5,4.3l-22.3,22.3
			c-0.7,0.7-0.9,1.6-0.7,2.5L62.6,267.7z M60,9.3l3.4,48.4c0.1,1.7,2.2,2.5,3.4,1.3l33.7-35L71.9,63.3c-1,1.4,0.1,3.3,1.8,3.2
			l48.3-5.1L74.9,73.1c-1.7,0.4-2.1,2.6-0.6,3.6l40.3,27.1L70.9,82.5c-1.6-0.8-3.3,0.7-2.8,2.3l13.4,46.7L61.8,87.2
			c-0.7-1.6-3-1.6-3.7,0l-19.7,44.4l13.4-46.7c0.5-1.7-1.2-3.1-2.8-2.3L5.4,103.8l40.3-27.1c1.4-1,1-3.2-0.6-3.6L-2,61.4l48.3,5.1
			c1.7,0.2,2.8-1.8,1.8-3.2L19.5,24.1l33.7,35c1.2,1.2,3.3,0.5,3.4-1.3L60,9.3z"/>
		<path class="st2" d="M23.6,156.7c0-73,59.2-132.2,132.2-132.2c73,0,132.2,59.2,132.2,132.2v132.2H23.6V156.7z"/>
	</g>
</g>
</svg>
