<?xml version="1.0" encoding="utf-8"?>
<!-- Generator: Adobe Illustrator 24.1.2, SVG Export Plug-In . SVG Version: 6.00 Build 0)  -->
<svg version="1.1" id="Слой_1" xmlns="http://www.w3.org/2000/svg" xmlns:xlink="http://www.w3.org/1999/xlink" x="0px" y="0px"
	 viewBox="0 0 311 312" style="enable-background:new 0 0 311 312;" xml:space="preserve">
<style type="text/css">
	.st0{fill:#131210;}
	.st1{fill:#D9D9D9;}
</style>
<path class="st0" d="M156,32.9l28,22.8h-56L156,32.9z M156,21.7l26.2,22.8h-52.4L156,21.7z M156,11.5l24.9,22.8h-49.8L156,11.5z
	 M156,0.7l23.1,22.8h-46.2L156,0.7z M68,32.9l28,22.8H40L68,32.9z M68,21.7l26.2,22.8H41.8L68,21.7z M68,11.5l24.9,22.8H43.1
	L68,11.5z M68,0.7l23.1,22.8H44.9L68,0.7z M244,32.9l28,22.8h-56L244,32.9z M244,21.7l26.2,22.8h-52.4L244,21.7z M244,11.5
	l24.9,22.8h-49.8L244,11.5z M244,0.7l23.1,22.8h-46.2L244,0.7z M243,233.6l68,55.1H175L243,233.6z M243,206.6l63.7,55.1H179.3
	L243,206.6z M243,181.7l60.4,55.1H182.6L243,181.7z M243,155.7l56.1,55.1H186.9L243,155.7z M68,233.6l68,55.1H0L68,233.6z M68,206.6
	l63.7,55.1H4.3L68,206.6z M68,181.7l60.4,55.1H7.6L68,181.7z M68,155.7l56.1,55.1H11.9L68,155.7z"/>
<path class="st1" d="M165.5,217.4c0,39.2-31.9,71.1-71.3,71.1c-39.4,0-71.3-31.8-71.3-71.1s31.9-71.1,71.3-71.1
	C133.6,146.3,165.5,178.1,165.5,217.4z M287.2,217.4c0,39.2-31.9,71.1-71.3,71.1c-39.4,0-71.3-31.8-71.3-71.1s31.9-71.1,71.3-71.1
	C255.2,146.3,287.2,178.1,287.2,217.4z M287.2,95.1c0,39.2-31.9,71.1-71.3,71.1c-39.4,0-71.3-31.8-71.3-71.1
	c0-39.2,31.9-71.1,71.3-71.1C255.2,24.1,287.2,55.9,287.2,95.1z M165.5,95.1c0,39.2-31.9,71.1-71.3,71.1
	c-39.4,0-71.3-31.8-71.3-71.1c0-39.2,31.9-71.1,71.3-71.1C133.6,24.1,165.5,55.9,165.5,95.1z"/>
</svg>
