<?xml version="1.0" encoding="utf-8"?>
<!-- Generator: Adobe Illustrator 24.1.2, SVG Export Plug-In . SVG Version: 6.00 Build 0)  -->
<svg version="1.1" id="Слой_1" xmlns="http://www.w3.org/2000/svg" xmlns:xlink="http://www.w3.org/1999/xlink" x="0px" y="0px"
	 viewBox="0 0 311 312" style="enable-background:new 0 0 311 312;" xml:space="preserve">
<style type="text/css">
	.st0{fill:#131210;}
	.st1{fill:#D9D9D9;}
</style>
<path class="st0" d="M78,207.7c21,0,38,17,38,38s-17,38-38,38s-38-17-38-38S57,207.7,78,207.7z M244.5,30.7
	c36.7,0,66.5,29.8,66.5,66.5s-29.8,66.5-66.5,66.5S178,134,178,97.2S207.8,30.7,244.5,30.7z M77.5,42.7c36.7,0,66.5,29.8,66.5,66.5
	s-29.8,66.5-66.5,66.5S11,146,11,109.2S40.8,42.7,77.5,42.7z"/>
<circle class="st1" cx="154" cy="155.7" r="132.7"/>
</svg>
