<svg width="998" height="458" viewBox="0 0 998 458" fill="none" xmlns="http://www.w3.org/2000/svg">
<path fill-rule="evenodd" clip-rule="evenodd" d="M570.703 215.017C579.943 213.797 589.215 212.792 598.518 212C601.188 214.625 603.546 217.675 604.706 221.284C606.835 226.466 605.623 232.397 603.558 237.484C602.444 239.173 600.908 240.568 599.489 242.01C597.871 243.991 595.921 245.647 593.787 247.027C591.596 247.782 589.559 248.953 587.355 249.724C581.729 251.15 575.362 251.339 570.319 248.228C570.319 248.228 567.528 246.185 566.611 244.963C565.202 242.472 565.017 239.507 566.005 236.791C567.286 235.058 568.846 233.495 570.647 232.301C570.901 232.768 571.2 233.208 571.543 233.65C569.311 234.246 568.528 236.301 567.926 238.287C568.315 239.454 568.696 240.607 569.052 241.785C569.944 244.066 575.176 247.5 576.077 247.312C578.489 246.997 580.995 246.948 583.208 245.757C583.942 245.333 584.687 244.926 585.442 244.54C589.679 241.293 592.629 236.169 592.107 230.772C591.037 227.351 589.399 223.954 586.632 221.599C584.28 219.37 581.171 218.248 578.392 216.682C575.893 215.85 573.285 215.5 570.703 215.017ZM462.633 239.567C490.395 230.507 518.784 223.479 547.524 218.538C543.924 220.171 540.352 221.868 537.098 224.165C535.446 225.454 533.048 226.281 532.436 228.511C531.316 232.076 529.652 235.47 527.727 238.689C525.266 242.055 522.09 245.364 517.816 246.142C510.686 247.273 497.772 241.498 497.576 241.474C493.761 240.275 490.127 238.495 486.136 237.842L485.813 237.773C484.187 237.444 482.54 237.313 480.877 237.319C479.365 237.046 477.821 237.015 476.298 237.027L474.35 237.632C468.302 239.171 462.518 242.219 458.382 247.057C457.982 246.865 457.196 246.488 456.803 246.297C459.043 244.323 460.8 241.909 462.633 239.567Z" fill="#3CAFFF"/>
<path fill-rule="evenodd" clip-rule="evenodd" d="M387.912 222.508C410.603 212.587 433.812 203.983 457.415 196.724L457.819 197.04C459.569 198.483 461.618 199.482 463.578 200.597L463.663 200.623C465.438 201.161 467.193 202.211 468.999 202.888C468.999 202.888 471.736 203.28 473.005 203.865C475.117 203.659 477.756 203.683 479.017 201.597C479.903 200.436 479.717 198.92 479.757 197.581L479.754 197.232C479.543 196.492 479.338 195.745 479.12 195.016C478.796 193.298 479.337 191.715 480.073 190.2C490.813 187.318 501.623 184.711 512.495 182.38C515.061 182.65 517.612 182.941 520.12 183.148C524.733 184.043 529.48 184.093 534.059 185.137L534.194 185.084C535.173 185.46 536.458 185.362 538.085 185.638L538.205 185.585C543.253 185.973 548.301 186.616 553.386 186.543C554.274 186.57 555.152 186.693 556.027 186.899L556.08 186.889C557.232 186.686 558.393 186.614 559.559 186.486C559.898 186.511 560.564 186.569 560.902 186.599C566.508 185.849 572.218 184.531 577.021 181.318C577.021 181.318 581.529 177.947 581.803 174.903C581.218 173.4 579.693 172.521 578.321 171.753C586.304 170.88 594.304 170.154 602.327 169.576C602.63 169.887 602.923 170.205 603.209 170.531C604.521 173.164 604.001 176.189 603.487 178.983L602.829 179.252C601.74 182.482 598.609 184.654 596.18 186.934C588.277 191.885 579.416 194.762 570.645 197.646C562.053 200.497 553.2 202.653 544.829 206.234C541.919 207.729 538.72 208.953 536.452 211.425C534.216 213.41 533.411 216.771 534.573 219.49C536.909 218.12 541.738 215.344 541.738 215.344C544.781 213.863 547.934 212.64 550.963 211.127C553.844 210.337 556.523 208.963 559.417 208.203C563.628 206.756 568.051 206.294 572.396 205.486C576.375 204.92 582.208 205.036 586.161 205.243C590.686 206.089 592.16 204.654 597.724 211.225L597.709 211.226C598.253 211.735 598.79 212.26 599.31 212.802C590.646 213.514 582.001 214.411 573.372 215.492C571.703 215.194 570.027 214.926 568.379 214.529L568.057 214.449C562.397 214.623 556.677 215.204 551.288 217.178C550.957 217.241 550.314 217.364 549.99 217.421C548.292 218.191 546.587 218.948 544.906 219.749C516.896 224.613 489.244 231.434 462.166 240.167C464.091 237.687 466.044 235.239 468.679 233.428C472.587 229.729 481.794 223.971 481.794 223.971C486.141 222.131 490.523 219.922 495.248 219.397C495.248 219.397 500.927 218.178 503.855 218.313C506.004 217.893 508.231 218.082 510.407 218.001L512.134 218.084C513.86 218.171 515.582 218.276 517.294 218.476C519.265 218.534 521.223 218.412 523.187 218.31C523.664 218.128 524.595 217.759 525.074 217.576C525.767 215.288 525.935 212.938 525.883 210.57L525.75 210.26C525.08 208.712 524.274 207.222 523.359 205.825L523.205 205.73C521.555 204.723 518.053 203.475 518.053 203.475C515.599 202.841 513.043 202.868 510.564 202.415C508.503 203.189 499.817 204.238 497.513 205.146C496.727 205.268 486.435 208.446 482.461 210.663C479.263 212.279 475.797 213.338 472.811 215.378C470.091 217.209 467.19 218.748 464.453 220.557C459.731 223.496 456.18 227.803 452.415 231.817C450.205 234.776 449.36 238.819 451.104 242.162C445.981 243.755 440.716 242.815 435.819 241.177C435.218 240.899 427.785 237.999 425.056 236.782C422.766 235.478 420.314 234.463 417.868 233.464L417.814 233.51C413.888 231.345 409.755 229.675 405.661 227.869L405.576 227.831C401.926 226.295 394.348 223.799 394.348 223.799C392.217 223.293 390.069 222.875 387.912 222.508ZM546.362 176.05C549.122 175.61 551.887 175.185 554.634 174.784C553.562 175.993 552.47 177.177 551.369 178.366C549.657 177.671 547.985 176.904 546.362 176.05Z" fill="#FF0003"/>
<path fill-rule="evenodd" clip-rule="evenodd" d="M352.287 189.313C370.585 180.654 389.23 172.821 408.157 165.829C408.293 166.934 408.519 168.109 408.992 170.408L409.631 169.771L409.621 169.229C409.604 167.809 409.645 166.547 409.695 165.264C416.434 162.794 423.207 160.432 430.01 158.174C430.257 159.951 430.533 161.394 430.799 162.338C430.848 162.508 430.986 162.871 431.007 162.907C431.651 164.019 432.17 165.198 432.718 166.361L432.723 166.357C433.846 168.726 437.124 175.808 437.619 176.893C437.898 177.236 438.48 177.907 438.767 178.26L438.835 178.378C439.553 179.604 440.531 180.643 441.522 181.666C442.564 183.423 444.095 184.789 445.394 186.341C448.577 190.777 453.373 193.563 457.601 196.869C434.089 204.102 410.977 212.689 388.398 222.592C385.205 222.034 381.993 221.6 378.781 221.171L378.528 221.191C377.937 221.236 374.278 221.016 374.278 221.016C370.747 220.609 367.193 220.517 363.662 220.298L363.485 220.324C347.247 218.968 333.188 221.346 328.479 221.867L327.537 221.973L327.378 222.202C326.866 222.233 326.34 222.274 325.826 222.34L325.094 222.444C309.706 224.683 294.594 229.27 280.523 236.052C275.11 238.637 270.121 241.988 264.877 244.881C257.731 249.86 250.649 254.992 244.176 260.833C243.149 261.733 241.985 262.511 241.026 263.497C234.438 270.605 227.718 277.602 221.071 284.656C217.105 289.86 212.801 294.777 209.059 300.165C207.218 303.174 204.656 305.728 202.997 308.841C201.918 310.122 200.692 311.328 199.966 312.858C195.982 317.858 193.072 323.577 189.283 328.718C184.998 335.044 181.297 341.726 176.989 348.038C174.411 351.954 172.584 356.417 169.547 360.009C169.547 360.009 168.424 362.173 167.836 363.21C165.27 367.835 162.779 372.529 159.603 376.807C159.077 377.818 158.498 378.822 157.962 379.839C156.215 382.293 154.948 385.032 153.202 387.475C150.795 390.436 148.864 393.717 146.756 396.886C143.936 400.785 141.293 404.878 138.189 408.529L137.887 408.882C132.634 414.778 127.179 420.51 121.644 426.124L121.451 426.353C117.344 431.147 111.863 434.489 106.52 437.724C97.1542 443.379 85.8664 446.173 75.1127 444.297C76.9264 443.23 78.8582 442.407 80.8171 441.66L81.6596 441.346C85.7606 438.358 90.438 436.269 94.6382 433.412C100.749 428.781 107.358 424.717 112.805 419.249C116.438 416.848 118.754 412.99 122.407 410.639C126.768 406.199 131.065 401.678 135.236 397.054C137.287 393.465 140.631 390.943 143.184 387.753C143.985 386.76 144.432 385.465 145.477 384.703L145.578 384.631C148.173 381.871 150.057 378.548 152.737 375.853C155.499 371.665 158.778 367.79 161.483 363.554C167.197 356.056 172.72 348.373 177.636 340.334C183.699 333.078 188.1 324.624 193.865 317.154C197.461 312.306 200.634 307.175 204.131 302.263C205.221 300.129 207.273 298.705 208.441 296.622C211.447 292.643 214.237 288.501 217.434 284.685C219.919 281.566 225.719 273.626 226.406 272.938C233.194 265.756 239.998 258.594 246.765 251.392C266.526 237.231 286.955 224.199 307.918 212.333C308.637 212.073 309.361 211.819 310.086 211.57C320.81 208.362 351.096 204.157 354.651 203.793C361.281 203.72 367.932 202.882 374.541 203.428L376.894 203.456C377.584 203.373 385.674 203.728 389.572 203.716C392.325 203.707 395.061 203.996 397.808 203.949C398.442 203.938 399.078 203.908 399.712 203.853C399.712 203.853 401.122 204.191 401.643 204.483L402.765 203.421C401.961 203.435 401.181 203.304 400.412 202.982C399.589 202.525 397.126 201.789 394.032 200.329C393.38 200.149 392.728 199.953 392.069 199.783L391.998 199.664L391.846 199.605C392.125 200.224 384.194 196.813 383.159 196.363L383.114 196.539C381.325 195.776 379.469 195.149 377.599 194.63L376.777 194.402C372.659 193.258 368.529 192.166 364.344 191.317L355.323 189.858L355.314 189.868C354.489 189.69 353.656 189.519 352.845 189.331C352.845 189.331 352.646 189.326 352.287 189.313ZM191.249 295.742C185.609 303.416 180.681 311.62 174.666 319.02C174.592 319.27 174.43 319.797 174.35 320.058C172.824 321.959 171.48 324.012 170.162 326.073L169.993 326.29C169.141 327.376 168.222 328.454 167.58 329.693C165.885 332.37 163.759 334.723 162.025 337.368C155.74 345.553 150.147 354.298 143.296 362.02C141.868 364.547 139.459 366.315 137.912 368.747C136.845 370.409 135.36 371.732 134.069 373.216C130.571 378.247 126.109 382.537 121.781 386.849C118.624 390.588 115.122 394.035 111.788 397.631C105.773 402.797 99.9536 408.239 93.6835 413.129C91.9089 414.14 85.7802 418.097 81.171 420.841C87.4281 411.689 93.872 402.733 100.525 393.941C100.927 393.577 101.297 393.235 101.631 392.915C105.473 390.371 107.907 386.252 111.791 383.747C118.224 377.195 124.317 370.305 130.808 363.828C130.808 363.828 137.749 356.568 140.865 352.926C143.478 348.531 147.773 345.495 150.752 341.391C152.238 338.626 155.012 336.878 156.591 334.197C157.854 332.033 159.886 330.485 161.331 328.471C165.497 323.364 169.189 317.858 173.727 313.069C174.932 311.528 176.14 309.989 177.346 308.446C181.934 304.136 186.573 299.895 191.249 295.742ZM578.806 172.026C578.534 171.871 578.265 171.722 578.003 171.574L577.293 171.466C575.63 171.209 573.961 170.959 572.284 171.335C571.155 171.327 569.619 172.398 569.065 170.73C576.899 166.153 586.391 162.432 595.345 165.293L595.537 165.336C596.498 165.559 597.429 165.884 598.378 166.166C599.914 167.298 601.372 168.543 602.674 169.94C594.696 170.488 586.734 171.183 578.806 172.026ZM469.181 146.465C490.116 140.879 511.308 136.28 532.694 132.687C535.284 135.918 538.198 139.312 538.9 139.814C542.045 142.235 553.557 150.062 555.646 152.213C555.07 152.366 555.359 152.29 555.646 152.213C556.486 153.005 557.343 153.793 558.117 154.666C558.874 156.704 558.918 158.922 558.976 161.085C558.845 164.896 557.402 168.445 555.959 171.939C555.564 172.805 555.182 173.685 554.824 174.569C554.667 174.746 554.511 174.924 554.354 175.1C551.818 175.467 549.284 175.851 546.748 176.25C545.351 175.531 543.991 174.749 542.673 173.894C540.775 173.24 538.874 172.613 536.995 171.879C533.739 170.642 530.145 170.884 526.697 170.729C527.046 170.421 527.736 169.813 528.088 169.506C529.908 166.288 530.379 162.124 527.897 159.184L527.668 159.023C525.307 157.383 522.692 156.127 520.028 155.062C520.028 155.062 507.063 152.456 500.572 151.713C496.829 151.348 487.108 150.258 486.249 150.067C481.691 149.632 477.137 148.835 472.748 147.583L472.325 147.459C471.885 147.335 470.724 146.982 469.181 146.465ZM479.965 190.429C480.242 189.835 480.554 189.255 480.863 188.682C482.219 186.889 484.159 185.768 485.999 184.576C494.602 180.615 504.017 181.472 513.176 182.453C502.044 184.816 490.973 187.474 479.965 190.429Z" fill="#59BD00"/>
<path fill-rule="evenodd" clip-rule="evenodd" d="M103.592 391.401C96.5033 400.632 89.6125 410.094 82.9288 419.782C80.3522 421.351 77.9959 422.725 76.7164 423.296C70.9225 426.344 64.6683 428.536 58.2202 429.516C55.7297 429.781 53.205 430.512 50.7283 429.843C52.5023 428.484 54.4401 427.302 56.5254 426.518L56.9304 426.241C61.1287 423.384 65.8431 421.312 69.7779 418.062C72.9197 415.897 94.7713 399.471 101.631 392.915C102.324 392.455 102.973 391.944 103.592 391.401ZM354.337 128.971C375.985 119.731 398.037 111.535 420.407 104.404C419.562 105.994 418.728 107.589 417.89 109.181C416.381 112.753 414.957 116.371 413.151 119.823L412.988 120.455C411.292 126.986 409.193 133.442 408.266 140.139C408.224 141.237 408.148 142.326 407.957 143.419L407.992 143.401C408.037 145.487 407.766 158.452 407.843 160.548L407.788 160.548C408.015 164.296 408.005 165.167 408.375 167.26C390.169 173.967 372.23 181.454 354.595 189.715C354.009 189.589 353.422 189.463 352.845 189.331C352.845 189.331 342.515 189.048 337.621 188.178C334.35 188.546 331.045 188.311 327.772 188.69C325.677 189.03 323.566 189.339 321.46 189.297L321.257 189.293C319.293 189.832 317.301 190.232 315.298 190.49C308.616 192.011 302.003 193.853 295.569 196.258C291.86 198.281 287.738 199.423 284.157 201.731C276.716 205.263 270.043 210.186 263.35 214.959C260.158 217.091 257.609 220.04 254.503 222.287L254.658 222.205C252.119 224.928 246.967 228.382 244.712 230.974C238.509 237.63 232.168 244.155 225.995 250.861C224.075 254.195 220.906 256.554 218.944 259.865C215.916 263.149 209.705 271.254 209.658 271.536C206.704 274.18 204.74 277.628 202.425 280.792C198.746 284.968 196.108 289.933 192.449 294.132C191.052 295.978 189.705 297.861 188.381 299.759C182.832 304.747 177.355 309.836 171.946 315.03C172.526 314.366 173.119 313.711 173.727 313.069C180.692 304.17 187.689 295.283 194.348 286.135C198.304 281.846 201.578 277.023 205.282 272.534C205.978 270.754 214.513 260.032 216.737 257.823C219.925 252.728 225.014 249.193 228.257 244.137C232.644 239.472 236.94 234.701 241.516 230.22L241.683 230.003C245.218 225.464 250.09 222.271 253.757 217.856C259.639 212.49 265.849 207.487 272.248 202.772C273.702 201.716 275.069 200.562 276.358 199.322L276.859 199.148L277.695 198.599C279.644 197.311 281.598 196.013 283.585 194.799C285.011 193.786 286.478 192.858 287.936 191.941C290.17 190.472 292.568 189.289 294.927 188.021C304.857 182.601 315.447 178.156 326.474 175.778L326.441 175.563C335.033 173.844 343.756 172.642 352.504 172.978C354.133 173.147 357.657 173.459 357.657 173.459C360.229 173.296 362.734 173.943 365.243 174.297C366.297 174.49 367.33 174.7 368.373 174.936L370.258 175.155L370.269 175.137C370.423 175.222 370.576 175.298 370.726 175.369C370.843 175.068 370.952 174.763 370.938 174.351L369.715 173.623C368.853 173.035 367.98 172.466 367.04 172.032C366.378 171.497 364.865 170.626 364.865 170.626C362.47 169.505 359.94 168.717 357.543 167.624C349.211 164.227 340.241 162.507 331.216 162.109C328.201 162.206 325.186 162.353 322.176 162.439C312.149 163.247 302.422 166.367 293.077 170.081L292.612 170.294C282.826 174.799 273.534 180.34 264.816 186.689C259.206 191.31 253.124 195.374 247.914 200.485C244.161 203.168 241.648 206.919 237.873 209.843C233.995 213.944 223.143 224.785 220.059 229.22C212.734 236.908 184.434 274.796 177.476 283.13C176.673 285.471 174.133 286.646 173.336 289.003C165.241 298.041 159.129 308.712 150.691 317.459L150.652 317.584C149.814 320.201 139.216 332.384 135.531 336.232C133.175 340.138 129.383 342.902 126.966 346.793C119.96 354.174 113.108 361.734 105.906 368.918C105.117 369.578 104.281 370.226 103.524 370.943C97.3724 377.246 90.3522 382.586 83.5166 388.117C81.0226 390.12 68.5199 397.37 65.2467 398.757C55.8008 403.361 44.7105 404.593 34.7124 401.66C36.1446 400.549 37.961 400.474 39.6311 400.048C42.1089 399.51 56.5985 394.122 61.0701 391.408C63.8489 390.171 73.6299 383.934 75.8695 382.57C79.0584 380.29 82.4493 378.263 85.31 375.554C87.926 373.885 90.149 371.683 92.6914 369.904C96.4687 366.812 100.215 363.669 103.715 360.258C108.57 356.679 112.128 351.69 116.523 347.58C120.694 345.078 131.186 333.039 133.038 330.8C137.111 324.306 143.885 319.907 147.942 313.457C152.008 309.517 154.985 304.679 159.109 300.804C159.156 300.509 159.268 299.921 159.324 299.632C160.374 298.532 161.445 297.483 162.422 296.343C165.539 291.858 169.248 287.813 172.453 283.401C180.111 274.636 186.591 264.894 193.951 255.878C194.916 253.164 208.048 237.888 212.435 232.146C216.726 227.642 225.29 218.609 225.29 218.609L225.331 218.562C225.331 218.562 238.746 205.686 245.365 199.094C248.98 195.941 252.741 192.957 256.122 189.544C261.168 185.528 266.131 181.369 271.455 177.722L271.721 177.476C277.277 172.336 284.123 168.991 290.103 164.433C293.454 162.114 297.227 160.551 300.576 158.238C306.935 154.528 313.733 151.695 320.396 148.632C324.619 147.399 328.676 145.651 332.916 144.48C337.356 143.441 341.839 142.539 346.365 142.147C355.487 141.276 364.92 142.458 373.241 146.201C372.806 145.12 372.373 144.059 371.896 143.01C370.741 140.073 367.977 138.347 366.351 135.748C364.141 134.623 362.633 132.532 360.434 131.395C358.905 130.743 357.41 130.051 355.938 129.298C355.938 129.298 355.321 129.169 354.337 128.971ZM210.759 210.297C210.356 211.01 209.957 211.723 209.564 212.439C207.2 216.208 204.993 220.051 202.746 223.884C200.273 229.234 196.479 233.852 194.051 239.206C193.025 240.878 191.972 242.541 190.977 244.238C188.409 248.153 186.031 252.2 183.677 256.252C180.082 261.041 172.426 273.435 171.595 274.456C167.674 279.364 164.38 284.8 159.994 289.328C159.934 289.617 159.82 290.199 159.76 290.501C156.335 293.365 154.404 297.466 151.135 300.455C149.072 302.404 147.478 304.985 144.867 306.258C143.164 307.635 142.041 309.986 139.933 310.717L139.832 310.75C136.561 314.023 132.663 316.543 129.003 319.341C126.659 320.524 115.315 325.6 112.066 326.8C108.831 327.411 105.535 328.543 102.25 327.934C104.194 326.488 106.226 325.155 108.066 323.561C108.066 323.561 123.038 312.721 127.46 309.662C131.87 305.53 137.107 302.451 141.647 298.464C143.617 297.12 145.137 295.14 147.261 294.028C151.349 289.889 170.942 268.542 171.633 266.76C172.717 265.471 173.863 264.235 174.68 262.757C175.839 261.089 181.22 252.978 182.739 251.218C183.383 250 184.174 248.859 184.858 247.672C187.354 243.985 189.238 239.933 191.815 236.295C192.682 234.848 193.601 233.402 194.399 231.911C196.805 227.301 199.557 222.866 202.219 218.39C202.752 217.379 203.326 216.386 203.848 215.372C206.135 213.674 208.426 211.989 210.759 210.297ZM242.473 255.949C244.839 253.443 247.201 250.932 249.556 248.415C251.402 246.433 253.554 244.767 255.653 243.05C258.633 238.035 269.338 232.841 274.559 228.897C276.838 227.175 279.435 225.978 281.779 224.376C285.413 221.757 289.793 220.569 293.556 218.159C298.987 215.758 304.471 213.501 310.086 211.57C311.086 211.271 312.254 210.963 313.556 210.65C289.059 224.208 265.316 239.319 242.473 255.949ZM437.45 99.1964C462.823 91.7737 488.575 85.7073 514.596 81.0237C515.205 81.8383 515.712 82.7255 516.204 83.8405C516.299 84.0556 516.356 84.2221 516.384 84.3513C517.018 85.6829 517.364 87.2828 517.337 88.9894C517.322 90.0594 517.856 91.0655 518.092 92.1142C518.32 93.5605 518.567 94.9974 518.839 96.4291L518.914 96.812C519.285 98.7225 520.207 103.585 520.207 103.585C520.344 104.914 521.01 107.858 522.093 112.645L522.089 112.651C522.377 113.339 522.674 114.037 522.946 114.742C524.319 119.382 526.545 123.675 528.998 127.813C529.98 129.267 531.91 131.744 533.817 134.073C512.964 137.532 492.279 141.947 471.815 147.307C468.821 146.404 457.123 142.595 454.045 139.096L453.77 138.866C450.952 136.464 448.761 133.386 447.499 129.874L447.429 129.66C447.075 128.583 446.789 127.512 446.413 126.451C446.413 126.451 446.175 123.751 446.099 122.414C445.819 118.361 447.432 114.5 449.071 110.87C452.728 104.445 458.561 98.9494 465.77 96.9382C468.593 95.9976 471.483 97.027 474.191 97.7328C473.476 98.978 472.578 100.152 472.007 101.484C471.468 103.038 471.961 104.644 472.304 106.164C472.919 107.437 474.015 110.823 479.594 116.697C482.546 119.391 487.827 123.405 487.827 123.405C490.052 124.138 492.297 124.869 494.66 125.036L494.87 124.974C495.92 124.657 496.95 124.3 497.981 123.927C498.178 123.047 498.378 122.17 498.594 121.287L498.569 120.483C498.513 118.604 497.627 115.014 497.627 115.014C497.135 112.056 495.649 109.452 494.377 106.804L494.276 106.648C492.135 103.346 486.595 98.3917 486.595 98.3917C483.098 95.8863 478.883 94.6167 474.571 94.4969L474.367 94.4913C470.589 94.3822 466.942 95.5096 463.302 96.3909C459.741 98.1866 455.808 99.3184 452.629 101.831C449.076 104.306 445.966 107.325 442.626 110.059C439.872 113.841 437.412 117.871 435.022 121.902C433.456 124.644 432.569 127.624 431.312 130.514C431.051 131.132 430.823 131.754 430.609 132.384C428.404 140.277 429.159 153.167 430.229 159.622C423.337 161.901 416.478 164.291 409.645 166.793C409.688 165.133 409.78 163.557 409.805 161.691L411.189 145.113L411.199 145.11C411.9 140.263 414.177 135.435 415.583 130.775C417.524 126.408 419.125 121.839 421.926 117.903C424.369 113.658 427.456 109.825 430.536 106.05C431.66 103.631 434.163 102.543 435.924 100.691C436.411 100.169 436.923 99.6725 437.45 99.1964Z" fill="#FFC600"/>
<path fill-rule="evenodd" clip-rule="evenodd" d="M377.863 86.2287C402.731 76.9982 428.072 69.0461 453.802 62.4051C452.184 62.9531 450.724 63.9327 449.663 65.353C445.97 69.4144 426.126 94.2798 426.126 94.2798C424.017 97.6921 422.097 101.211 420.223 104.75C398.116 111.844 376.349 119.972 355.005 129.106C352.563 128.61 345.934 127.296 342.619 126.957C338.156 126.715 333.684 127.007 329.254 127.706C329.254 127.706 317.192 129.744 311.561 131.825C306.401 133.365 301.376 135.344 296.336 137.256C296.088 137.346 296.21 137.301 296.336 137.256C288.147 140.802 280.332 145.115 272.597 149.577C261.645 155.98 251.5 163.688 241.883 171.958C239.069 173.856 237.319 176.933 234.433 178.765C231.836 180.875 229.693 183.511 227.445 185.992C226.294 188.935 223.078 190.451 221.869 193.382C217.375 199.001 213.602 205.184 210.107 211.461C207.809 213.135 205.52 214.823 203.227 216.532C203.452 216.126 203.672 215.718 203.886 215.305C205.889 211.657 208.454 208.385 210.762 204.943C211.394 203.857 212.156 202.865 212.875 201.866C216.45 197.072 219.645 191.945 223.958 187.772C230.079 181.343 236.12 174.842 242.256 168.462C244.138 166.997 245.988 165.474 247.659 163.773C249.003 163.13 250.004 162.005 251.1 161.043C252.732 160.068 254.002 158.63 255.596 157.618C260.918 153.254 277.08 142.898 279.441 141.605C295.99 131.781 313.948 124.373 332.512 119.647C331.995 119.926 332.167 119.832 332.512 119.647C342.012 117.495 351.725 115.32 361.468 116.2C369.326 116.186 377.17 115.548 384.961 114.404C388.746 113.247 392.642 112.482 396.136 110.522C397.752 109.448 399.326 108.306 400.666 106.91C401.08 105.063 402.042 103.117 401.206 101.257C399.879 97.7532 397.088 95.0374 394.257 92.6859C393.389 92.3587 392.622 91.8802 391.96 91.2377C388.975 88.475 384.82 87.5503 380.973 86.5644C379.938 86.2983 378.9 86.2043 377.863 86.2287ZM437.045 99.5698C439.477 97.2838 442.317 95.4742 444.949 93.4256C448.304 90.5629 452.27 88.6589 456.073 86.5072C467.487 80.8294 479.963 77.4404 492.599 76.4682L492.823 76.2774C499.417 76.0828 506.403 75.4008 512.367 78.6754L512.51 78.7534C513.385 79.5712 514.08 80.3129 514.675 81.1309C488.463 85.8852 462.553 92.0438 437.045 99.5698ZM455.243 62.0339C463.728 59.8612 472.25 57.8321 480.83 55.9424C480.674 56.4511 480.519 56.9617 480.37 57.4739C479.663 59.7454 476.085 67.8049 474.794 68.986C474.207 69.5273 473.691 70.1375 473.229 70.8056C469.315 75.7432 462.251 75.1193 456.734 74.4142C459.567 72.7719 462.164 70.7523 464.265 68.2162C464.269 67.1441 464.283 66.0832 464.292 65.007C462.147 62.47 458.533 61.4456 455.243 62.0339ZM362.608 92.0724C356.655 96.3649 351.322 101.542 345.637 106.184C341.466 109.89 336.516 112.524 331.725 115.325C327.563 117.216 323.376 119.275 318.835 119.995L318.587 120.272C315.603 121.028 312.566 121.55 309.595 122.376C308.511 122.686 307.424 122.291 306.399 122.023C307.869 121.253 309.489 120.884 311.085 120.539C313.052 119.475 315.178 118.823 317.239 117.983C323.245 115.098 329.02 111.569 333.943 107.044C335.534 105.33 337.158 103.644 338.775 101.953C346.666 98.5272 354.613 95.2334 362.608 92.0724Z" fill="#FF6700"/>
<path fill-rule="evenodd" clip-rule="evenodd" d="M338.342 102.408C342.886 97.6665 347.419 92.9143 351.123 87.4797C351.731 86.7568 361.219 74.7485 365.742 69.9632C368.331 67.2557 372.253 66.977 375.71 66.4002C379.96 66.353 384.111 67.3517 388.321 67.7677L389.105 67.9194C393.023 68.6888 411.602 72.4607 417.006 71.6987C420.282 71.6202 423.478 70.6454 426.377 69.1109C428.004 67.796 428.087 65.5606 428.865 63.7643C428.618 60.6294 429.307 57.527 429.155 54.4118C428.973 51.1507 429.749 47.8168 431.353 44.9577C434.049 41.6839 437.254 38.0636 441.625 37.3548C440.889 40.3548 441.237 43.4218 441.824 46.3774C442.911 48.1746 444.28 49.7425 445.842 51.1471C447.926 49.0828 449.74 46.7226 452.027 44.8904C461.463 38.5933 471.927 34.2065 481.815 28.7135C485.261 26.7349 489.083 25.4399 492.309 23.1084C492.588 23.3612 493.14 23.8625 493.423 24.1202C491.201 26.4426 490.416 29.6197 488.872 32.3392C487.264 35.1125 484.342 43.5425 484.051 44.9664C483.229 48.8117 481.88 52.5148 480.728 56.2808C472.786 58.0127 464.86 59.8765 456.941 61.8738C455.333 61.8934 453.73 62.2821 452.332 63.0509C427.5 69.4786 402.849 77.1959 378.477 86.2274C375.486 86.1547 372.49 87.1302 369.561 87.7153C366.862 89.1341 364.33 90.7926 361.895 92.593C354.013 95.723 346.161 98.9951 338.342 102.408Z" fill="#877DE5"/>
<path d="M251.848 416.152C251.643 416.152 251.475 416.086 251.344 415.956C251.232 415.825 251.176 415.666 251.176 415.48V400.976L246.92 404.252C246.752 404.364 246.584 404.41 246.416 404.392C246.248 404.354 246.099 404.252 245.968 404.084L244.792 402.572C244.68 402.404 244.633 402.226 244.652 402.04C244.689 401.853 244.792 401.704 244.96 401.592L251.232 396.748C251.344 396.654 251.456 396.598 251.568 396.58C251.68 396.561 251.801 396.552 251.932 396.552H254.396C254.583 396.552 254.741 396.617 254.872 396.748C255.003 396.878 255.068 397.037 255.068 397.224V415.48C255.068 415.666 255.003 415.825 254.872 415.956C254.741 416.086 254.583 416.152 254.396 416.152H251.848Z" fill="white"/>
<path d="M264.759 416.152C264.554 416.152 264.386 416.086 264.255 415.956C264.143 415.825 264.087 415.666 264.087 415.48V400.976L259.831 404.252C259.663 404.364 259.495 404.41 259.327 404.392C259.159 404.354 259.01 404.252 258.879 404.084L257.703 402.572C257.591 402.404 257.544 402.226 257.563 402.04C257.6 401.853 257.703 401.704 257.871 401.592L264.143 396.748C264.255 396.654 264.367 396.598 264.479 396.58C264.591 396.561 264.712 396.552 264.843 396.552H267.307C267.494 396.552 267.652 396.617 267.783 396.748C267.914 396.878 267.979 397.037 267.979 397.224V415.48C267.979 415.666 267.914 415.825 267.783 415.956C267.652 416.086 267.494 416.152 267.307 416.152H264.759Z" fill="white"/>
<path d="M272.35 409.348C272.144 409.348 271.976 409.282 271.846 409.152C271.734 409.021 271.678 408.862 271.678 408.676V406.828C271.678 406.641 271.734 406.482 271.846 406.352C271.976 406.221 272.144 406.156 272.35 406.156H280.946C281.132 406.156 281.291 406.221 281.422 406.352C281.552 406.482 281.618 406.641 281.618 406.828V408.676C281.618 408.862 281.552 409.021 281.422 409.152C281.291 409.282 281.132 409.348 280.946 409.348H272.35Z" fill="white"/>
<path d="M290.198 416.152C289.993 416.152 289.825 416.086 289.694 415.956C289.582 415.825 289.526 415.666 289.526 415.48V400.976L285.27 404.252C285.102 404.364 284.934 404.41 284.766 404.392C284.598 404.354 284.449 404.252 284.318 404.084L283.142 402.572C283.03 402.404 282.983 402.226 283.002 402.04C283.039 401.853 283.142 401.704 283.31 401.592L289.582 396.748C289.694 396.654 289.806 396.598 289.918 396.58C290.03 396.561 290.151 396.552 290.282 396.552H292.746C292.933 396.552 293.091 396.617 293.222 396.748C293.353 396.878 293.418 397.037 293.418 397.224V415.48C293.418 415.666 293.353 415.825 293.222 415.956C293.091 416.086 292.933 416.152 292.746 416.152H290.198Z" fill="white"/>
<path d="M297.285 416.152C297.098 416.152 296.94 416.086 296.809 415.956C296.678 415.825 296.613 415.666 296.613 415.48V414.052C296.613 413.884 296.65 413.688 296.725 413.464C296.818 413.221 297.014 412.978 297.313 412.736L301.737 408.34C302.969 407.369 303.958 406.548 304.705 405.876C305.47 405.185 306.021 404.56 306.357 404C306.712 403.421 306.889 402.852 306.889 402.292C306.889 401.452 306.656 400.77 306.189 400.248C305.741 399.725 305.022 399.464 304.033 399.464C303.38 399.464 302.829 399.604 302.381 399.884C301.933 400.145 301.578 400.5 301.317 400.948C301.074 401.396 300.906 401.89 300.813 402.432C300.776 402.674 300.673 402.842 300.505 402.936C300.337 403.029 300.169 403.076 300.001 403.076H297.509C297.341 403.076 297.201 403.02 297.089 402.908C296.977 402.796 296.921 402.665 296.921 402.516C296.94 401.713 297.108 400.938 297.425 400.192C297.742 399.426 298.2 398.754 298.797 398.176C299.413 397.578 300.16 397.102 301.037 396.748C301.914 396.393 302.904 396.216 304.005 396.216C305.554 396.216 306.833 396.477 307.841 397C308.868 397.522 309.633 398.232 310.137 399.128C310.66 400.024 310.921 401.032 310.921 402.152C310.921 403.029 310.753 403.841 310.417 404.588C310.081 405.316 309.596 406.025 308.961 406.716C308.326 407.388 307.561 408.078 306.665 408.788L302.689 412.82H310.669C310.874 412.82 311.033 412.885 311.145 413.016C311.276 413.128 311.341 413.286 311.341 413.492V415.48C311.341 415.666 311.276 415.825 311.145 415.956C311.033 416.086 310.874 416.152 310.669 416.152H297.285Z" fill="white"/>
<path d="M321.843 416.152C321.657 416.152 321.498 416.086 321.367 415.956C321.237 415.825 321.171 415.657 321.171 415.452V397.252C321.171 397.046 321.237 396.878 321.367 396.748C321.498 396.617 321.666 396.552 321.871 396.552H324.391C324.597 396.552 324.755 396.617 324.867 396.748C324.998 396.878 325.063 397.046 325.063 397.252V410.104L334.275 397C334.35 396.906 334.453 396.813 334.583 396.72C334.714 396.608 334.882 396.552 335.087 396.552H337.411C337.598 396.552 337.757 396.617 337.887 396.748C338.018 396.878 338.083 397.046 338.083 397.252V415.48C338.083 415.666 338.018 415.825 337.887 415.956C337.757 416.086 337.598 416.152 337.411 416.152H334.891C334.686 416.152 334.518 416.086 334.387 415.956C334.257 415.825 334.191 415.666 334.191 415.48V402.88L325.007 415.704C324.951 415.778 324.858 415.872 324.727 415.984C324.597 416.096 324.419 416.152 324.195 416.152H321.843Z" fill="white"/>
<path d="M358.299 416.432C356.973 416.432 355.807 416.254 354.799 415.9C353.809 415.526 352.979 415.013 352.307 414.36C351.653 413.706 351.149 412.932 350.795 412.036C350.44 411.121 350.225 410.113 350.151 409.012C350.132 408.825 350.113 408.648 350.095 408.48C350.095 408.312 350.095 408.144 350.095 407.976H346.287V415.48C346.287 415.666 346.221 415.825 346.091 415.956C345.979 416.086 345.82 416.152 345.615 416.152H343.067C342.88 416.152 342.721 416.096 342.591 415.984C342.46 415.853 342.395 415.685 342.395 415.48V397.224C342.395 397.037 342.46 396.878 342.591 396.748C342.721 396.617 342.88 396.552 343.067 396.552H345.615C345.82 396.552 345.979 396.617 346.091 396.748C346.221 396.878 346.287 397.037 346.287 397.224V404.476H350.123C350.123 404.345 350.123 404.205 350.123 404.056C350.141 403.888 350.151 403.729 350.151 403.58C350.244 402.553 350.468 401.592 350.823 400.696C351.177 399.8 351.681 399.025 352.335 398.372C353.007 397.718 353.837 397.205 354.827 396.832C355.816 396.458 356.973 396.272 358.299 396.272C359.68 396.272 360.875 396.468 361.883 396.86C362.891 397.233 363.731 397.765 364.403 398.456C365.075 399.146 365.579 399.968 365.915 400.92C366.251 401.853 366.447 402.87 366.503 403.972C366.54 404.793 366.559 405.596 366.559 406.38C366.559 407.164 366.54 407.957 366.503 408.76C366.447 409.898 366.241 410.934 365.887 411.868C365.551 412.801 365.047 413.613 364.375 414.304C363.721 414.976 362.891 415.498 361.883 415.872C360.875 416.245 359.68 416.432 358.299 416.432ZM358.299 413.212C359.101 413.212 359.811 413.062 360.427 412.764C361.043 412.465 361.528 411.989 361.883 411.336C362.256 410.664 362.461 409.786 362.499 408.704C362.536 407.882 362.555 407.098 362.555 406.352C362.555 405.586 362.536 404.802 362.499 404C362.461 402.917 362.256 402.049 361.883 401.396C361.528 400.724 361.043 400.238 360.427 399.94C359.811 399.641 359.101 399.492 358.299 399.492C357.533 399.492 356.833 399.641 356.199 399.94C355.583 400.238 355.088 400.724 354.715 401.396C354.36 402.049 354.164 402.917 354.127 404C354.108 404.802 354.099 405.586 354.099 406.352C354.099 407.098 354.108 407.882 354.127 408.704C354.164 409.786 354.36 410.664 354.715 411.336C355.088 411.989 355.583 412.465 356.199 412.764C356.815 413.062 357.515 413.212 358.299 413.212Z" fill="white"/>
<path d="M382.899 416.152C382.712 416.152 382.553 416.086 382.423 415.956C382.292 415.825 382.227 415.666 382.227 415.48V400.052H376.151V403.58C376.151 405.82 376.029 407.733 375.787 409.32C375.563 410.906 375.189 412.194 374.667 413.184C374.144 414.154 373.435 414.882 372.539 415.368C371.643 415.834 370.523 416.086 369.179 416.124C368.992 416.142 368.824 416.086 368.675 415.956C368.544 415.806 368.479 415.638 368.479 415.452V413.352C368.479 412.96 368.693 412.736 369.123 412.68C369.683 412.586 370.159 412.325 370.551 411.896C370.961 411.466 371.297 410.86 371.559 410.076C371.839 409.292 372.044 408.321 372.175 407.164C372.305 405.988 372.371 404.625 372.371 403.076V397.224C372.371 397.037 372.436 396.878 372.567 396.748C372.697 396.617 372.856 396.552 373.043 396.552H385.419C385.624 396.552 385.792 396.617 385.923 396.748C386.053 396.878 386.119 397.046 386.119 397.252V415.48C386.119 415.666 386.053 415.825 385.923 415.956C385.792 416.086 385.624 416.152 385.419 416.152H382.899Z" fill="white"/>
<path d="M401.927 416.152C401.74 416.152 401.572 416.086 401.423 415.956C401.292 415.825 401.227 415.666 401.227 415.48V409.068H397.111C395.804 409.068 394.656 408.825 393.667 408.34C392.678 407.836 391.912 407.126 391.371 406.212C390.83 405.278 390.559 404.168 390.559 402.88C390.559 401.722 390.82 400.668 391.343 399.716C391.866 398.764 392.64 397.998 393.667 397.42C394.712 396.841 396 396.552 397.531 396.552H404.447C404.652 396.552 404.811 396.617 404.923 396.748C405.054 396.878 405.119 397.037 405.119 397.224V415.48C405.119 415.666 405.054 415.825 404.923 415.956C404.811 416.086 404.652 416.152 404.447 416.152H401.927ZM390.727 416.152C390.578 416.152 390.447 416.096 390.335 415.984C390.223 415.872 390.167 415.732 390.167 415.564C390.167 415.47 390.195 415.368 390.251 415.256L394.871 407.724L398.567 408.34L394.395 415.396C394.283 415.582 394.143 415.76 393.975 415.928C393.826 416.077 393.592 416.152 393.275 416.152H390.727ZM397.699 405.904H401.227V399.66H397.699C396.71 399.66 395.935 399.968 395.375 400.584C394.834 401.181 394.563 401.956 394.563 402.908C394.563 403.878 394.824 404.625 395.347 405.148C395.87 405.652 396.654 405.904 397.699 405.904Z" fill="white"/>
<path d="M415.552 416.152C415.365 416.152 415.207 416.086 415.076 415.956C414.945 415.825 414.88 415.666 414.88 415.48V414.052C414.88 413.884 414.917 413.688 414.992 413.464C415.085 413.221 415.281 412.978 415.58 412.736L420.004 408.34C421.236 407.369 422.225 406.548 422.972 405.876C423.737 405.185 424.288 404.56 424.624 404C424.979 403.421 425.156 402.852 425.156 402.292C425.156 401.452 424.923 400.77 424.456 400.248C424.008 399.725 423.289 399.464 422.3 399.464C421.647 399.464 421.096 399.604 420.648 399.884C420.2 400.145 419.845 400.5 419.584 400.948C419.341 401.396 419.173 401.89 419.08 402.432C419.043 402.674 418.94 402.842 418.772 402.936C418.604 403.029 418.436 403.076 418.268 403.076H415.776C415.608 403.076 415.468 403.02 415.356 402.908C415.244 402.796 415.188 402.665 415.188 402.516C415.207 401.713 415.375 400.938 415.692 400.192C416.009 399.426 416.467 398.754 417.064 398.176C417.68 397.578 418.427 397.102 419.304 396.748C420.181 396.393 421.171 396.216 422.272 396.216C423.821 396.216 425.1 396.477 426.108 397C427.135 397.522 427.9 398.232 428.404 399.128C428.927 400.024 429.188 401.032 429.188 402.152C429.188 403.029 429.02 403.841 428.684 404.588C428.348 405.316 427.863 406.025 427.228 406.716C426.593 407.388 425.828 408.078 424.932 408.788L420.956 412.82H428.936C429.141 412.82 429.3 412.885 429.412 413.016C429.543 413.128 429.608 413.286 429.608 413.492V415.48C429.608 415.666 429.543 415.825 429.412 415.956C429.3 416.086 429.141 416.152 428.936 416.152H415.552Z" fill="white"/>
<path d="M440.09 416.432C438.765 416.432 437.635 416.236 436.702 415.844C435.769 415.452 435.003 414.91 434.406 414.22C433.809 413.529 433.361 412.736 433.062 411.84C432.763 410.925 432.586 409.954 432.53 408.928C432.511 408.424 432.493 407.873 432.474 407.276C432.474 406.66 432.474 406.044 432.474 405.428C432.493 404.812 432.511 404.242 432.53 403.72C432.567 402.693 432.745 401.732 433.062 400.836C433.379 399.921 433.837 399.128 434.434 398.456C435.05 397.784 435.825 397.252 436.758 396.86C437.691 396.468 438.802 396.272 440.09 396.272C441.397 396.272 442.517 396.468 443.45 396.86C444.383 397.252 445.149 397.784 445.746 398.456C446.362 399.128 446.819 399.921 447.118 400.836C447.435 401.732 447.613 402.693 447.65 403.72C447.687 404.242 447.706 404.812 447.706 405.428C447.706 406.044 447.706 406.66 447.706 407.276C447.706 407.873 447.687 408.424 447.65 408.928C447.613 409.954 447.445 410.925 447.146 411.84C446.847 412.736 446.399 413.529 445.802 414.22C445.205 414.91 444.43 415.452 443.478 415.844C442.545 416.236 441.415 416.432 440.09 416.432ZM440.09 413.212C441.303 413.212 442.19 412.82 442.75 412.036C443.329 411.233 443.627 410.15 443.646 408.788C443.683 408.246 443.702 407.705 443.702 407.164C443.702 406.604 443.702 406.044 443.702 405.484C443.702 404.924 443.683 404.392 443.646 403.888C443.627 402.562 443.329 401.498 442.75 400.696C442.19 399.874 441.303 399.464 440.09 399.464C438.895 399.464 438.009 399.874 437.43 400.696C436.87 401.498 436.571 402.562 436.534 403.888C436.534 404.392 436.525 404.924 436.506 405.484C436.506 406.044 436.506 406.604 436.506 407.164C436.525 407.705 436.534 408.246 436.534 408.788C436.571 410.15 436.879 411.233 437.458 412.036C438.037 412.82 438.914 413.212 440.09 413.212Z" fill="white"/>
<path d="M451.19 416.152C451.004 416.152 450.845 416.086 450.714 415.956C450.584 415.825 450.518 415.666 450.518 415.48V414.052C450.518 413.884 450.556 413.688 450.63 413.464C450.724 413.221 450.92 412.978 451.218 412.736L455.642 408.34C456.874 407.369 457.864 406.548 458.61 405.876C459.376 405.185 459.926 404.56 460.262 404C460.617 403.421 460.794 402.852 460.794 402.292C460.794 401.452 460.561 400.77 460.094 400.248C459.646 399.725 458.928 399.464 457.938 399.464C457.285 399.464 456.734 399.604 456.286 399.884C455.838 400.145 455.484 400.5 455.222 400.948C454.98 401.396 454.812 401.89 454.718 402.432C454.681 402.674 454.578 402.842 454.41 402.936C454.242 403.029 454.074 403.076 453.906 403.076H451.414C451.246 403.076 451.106 403.02 450.994 402.908C450.882 402.796 450.826 402.665 450.826 402.516C450.845 401.713 451.013 400.938 451.33 400.192C451.648 399.426 452.105 398.754 452.702 398.176C453.318 397.578 454.065 397.102 454.942 396.748C455.82 396.393 456.809 396.216 457.91 396.216C459.46 396.216 460.738 396.477 461.746 397C462.773 397.522 463.538 398.232 464.042 399.128C464.565 400.024 464.826 401.032 464.826 402.152C464.826 403.029 464.658 403.841 464.322 404.588C463.986 405.316 463.501 406.025 462.866 406.716C462.232 407.388 461.466 408.078 460.57 408.788L456.594 412.82H464.574C464.78 412.82 464.938 412.885 465.05 413.016C465.181 413.128 465.246 413.286 465.246 413.492V415.48C465.246 415.666 465.181 415.825 465.05 415.956C464.938 416.086 464.78 416.152 464.574 416.152H451.19Z" fill="white"/>
<path d="M475.112 416.46C473.507 416.46 472.154 416.198 471.052 415.676C469.951 415.134 469.111 414.434 468.532 413.576C467.972 412.717 467.674 411.802 467.636 410.832C467.618 410.664 467.664 410.533 467.776 410.44C467.907 410.328 468.056 410.272 468.224 410.272H470.828C471.034 410.272 471.202 410.318 471.332 410.412C471.482 410.486 471.594 410.626 471.668 410.832C471.855 411.392 472.116 411.849 472.452 412.204C472.807 412.558 473.208 412.82 473.656 412.988C474.123 413.156 474.608 413.24 475.112 413.24C475.784 413.24 476.391 413.109 476.932 412.848C477.492 412.568 477.94 412.157 478.276 411.616C478.612 411.074 478.78 410.412 478.78 409.628C478.78 408.937 478.622 408.34 478.304 407.836C477.987 407.332 477.548 406.94 476.988 406.66C476.447 406.361 475.822 406.212 475.112 406.212C474.59 406.212 474.16 406.277 473.824 406.408C473.488 406.538 473.199 406.688 472.956 406.856C472.732 407.024 472.527 407.173 472.34 407.304C472.172 407.434 471.976 407.5 471.752 407.5H469.176C469.008 407.5 468.859 407.444 468.728 407.332C468.616 407.201 468.56 407.052 468.56 406.884L469.54 397.308C469.559 397.065 469.643 396.878 469.792 396.748C469.942 396.617 470.119 396.552 470.324 396.552H480.852C481.039 396.552 481.198 396.617 481.328 396.748C481.459 396.878 481.524 397.037 481.524 397.224V399.1C481.524 399.286 481.459 399.445 481.328 399.576C481.198 399.706 481.039 399.772 480.852 399.772H472.76L472.312 404.336C472.648 404.112 473.096 403.897 473.656 403.692C474.216 403.486 474.991 403.384 475.98 403.384C476.876 403.384 477.726 403.533 478.528 403.832C479.35 404.112 480.078 404.532 480.712 405.092C481.347 405.633 481.842 406.296 482.196 407.08C482.57 407.845 482.756 408.722 482.756 409.712C482.756 411.074 482.439 412.26 481.804 413.268C481.17 414.276 480.283 415.06 479.144 415.62C478.006 416.18 476.662 416.46 475.112 416.46Z" fill="white"/>
<path d="M491.466 418.504C491.317 418.504 491.186 418.448 491.074 418.336C490.962 418.224 490.906 418.084 490.906 417.916C490.906 417.841 490.925 417.738 490.962 417.608L500.482 394.732C500.557 394.601 500.659 394.47 500.79 394.34C500.921 394.209 501.107 394.144 501.35 394.144H503.17C503.319 394.144 503.45 394.2 503.562 394.312C503.693 394.424 503.758 394.564 503.758 394.732C503.758 394.806 503.73 394.909 503.674 395.04L494.126 417.916C494.07 418.028 493.977 418.149 493.846 418.28C493.715 418.429 493.519 418.504 493.258 418.504H491.466Z" fill="white"/>
<path d="M513.579 416.152C513.393 416.152 513.234 416.086 513.103 415.956C512.973 415.825 512.907 415.666 512.907 415.48V397.252C512.907 397.046 512.973 396.878 513.103 396.748C513.234 396.617 513.393 396.552 513.579 396.552H526.403C526.609 396.552 526.767 396.617 526.879 396.748C527.01 396.878 527.075 397.046 527.075 397.252V399.212C527.075 399.398 527.01 399.557 526.879 399.688C526.767 399.818 526.609 399.884 526.403 399.884H516.799V404.364H521.531C523.641 404.364 525.293 404.886 526.487 405.932C527.682 406.977 528.279 408.396 528.279 410.188C528.279 410.953 528.13 411.7 527.831 412.428C527.551 413.137 527.131 413.772 526.571 414.332C526.011 414.892 525.311 415.34 524.471 415.676C523.631 415.993 522.651 416.152 521.531 416.152H513.579ZM516.799 413.184H521.139C521.811 413.184 522.381 413.044 522.847 412.764C523.314 412.484 523.669 412.11 523.911 411.644C524.154 411.177 524.275 410.673 524.275 410.132C524.275 409.31 524.014 408.629 523.491 408.088C522.969 407.546 522.185 407.276 521.139 407.276H516.799V413.184Z" fill="white"/>
<path d="M532.357 416.152C532.171 416.152 532.012 416.086 531.881 415.956C531.751 415.825 531.685 415.666 531.685 415.48V413.408C531.685 413.202 531.751 413.034 531.881 412.904C532.012 412.773 532.171 412.708 532.357 412.708H533.393C533.935 412.708 534.401 412.596 534.793 412.372C535.185 412.129 535.549 411.756 535.885 411.252C536.221 410.729 536.557 410.066 536.893 409.264L542.241 397.084C542.297 396.897 542.391 396.766 542.521 396.692C542.671 396.598 542.829 396.552 542.997 396.552H545.601C545.751 396.552 545.881 396.608 545.993 396.72C546.124 396.832 546.189 396.962 546.189 397.112C546.189 397.205 546.18 397.289 546.161 397.364C546.143 397.438 546.115 397.513 546.077 397.588L540.449 410.44C539.983 411.466 539.544 412.344 539.133 413.072C538.723 413.781 538.275 414.369 537.789 414.836C537.304 415.284 536.725 415.62 536.053 415.844C535.4 416.049 534.607 416.152 533.673 416.152H532.357ZM536.697 411.252L529.221 397.448C529.165 397.336 529.137 397.242 529.137 397.168C529.137 397 529.203 396.86 529.333 396.748C529.464 396.617 529.604 396.552 529.753 396.552H532.497C532.665 396.552 532.805 396.598 532.917 396.692C533.048 396.766 533.151 396.897 533.225 397.084L538.741 407.388L536.697 411.252Z" fill="white"/>
<path d="M548.971 416.152C548.785 416.152 548.626 416.086 548.495 415.956C548.365 415.825 548.299 415.666 548.299 415.48V397.252C548.299 397.046 548.365 396.878 548.495 396.748C548.626 396.617 548.785 396.552 548.971 396.552H556.475C557.931 396.552 559.201 396.785 560.283 397.252C561.366 397.7 562.206 398.39 562.803 399.324C563.401 400.238 563.699 401.386 563.699 402.768C563.699 404.168 563.401 405.325 562.803 406.24C562.206 407.136 561.366 407.808 560.283 408.256C559.201 408.704 557.931 408.928 556.475 408.928H552.303V415.48C552.303 415.666 552.238 415.825 552.107 415.956C551.995 416.086 551.837 416.152 551.631 416.152H548.971ZM552.247 405.82H556.335C557.418 405.82 558.249 405.568 558.827 405.064C559.406 404.541 559.695 403.776 559.695 402.768C559.695 401.834 559.425 401.088 558.883 400.528C558.342 399.949 557.493 399.66 556.335 399.66H552.247V405.82Z" fill="white"/>
<path d="M578.186 416.152C578 416.152 577.832 416.086 577.682 415.956C577.552 415.825 577.486 415.666 577.486 415.48V409.068H573.37C572.064 409.068 570.916 408.825 569.926 408.34C568.937 407.836 568.172 407.126 567.63 406.212C567.089 405.278 566.818 404.168 566.818 402.88C566.818 401.722 567.08 400.668 567.602 399.716C568.125 398.764 568.9 397.998 569.926 397.42C570.972 396.841 572.26 396.552 573.79 396.552H580.706C580.912 396.552 581.07 396.617 581.182 396.748C581.313 396.878 581.378 397.037 581.378 397.224V415.48C581.378 415.666 581.313 415.825 581.182 415.956C581.07 416.086 580.912 416.152 580.706 416.152H578.186ZM566.986 416.152C566.837 416.152 566.706 416.096 566.594 415.984C566.482 415.872 566.426 415.732 566.426 415.564C566.426 415.47 566.454 415.368 566.51 415.256L571.13 407.724L574.826 408.34L570.654 415.396C570.542 415.582 570.402 415.76 570.234 415.928C570.085 416.077 569.852 416.152 569.534 416.152H566.986ZM573.958 405.904H577.486V399.66H573.958C572.969 399.66 572.194 399.968 571.634 400.584C571.093 401.181 570.822 401.956 570.822 402.908C570.822 403.878 571.084 404.625 571.606 405.148C572.129 405.652 572.913 405.904 573.958 405.904Z" fill="white"/>
<path d="M590.699 416.152C590.512 416.152 590.354 416.086 590.223 415.956C590.092 415.825 590.027 415.666 590.027 415.48V399.996H584.847C584.66 399.996 584.502 399.93 584.371 399.8C584.24 399.669 584.175 399.51 584.175 399.324V397.252C584.175 397.046 584.24 396.878 584.371 396.748C584.502 396.617 584.66 396.552 584.847 396.552H599.127C599.332 396.552 599.5 396.617 599.631 396.748C599.762 396.878 599.827 397.046 599.827 397.252V399.324C599.827 399.51 599.762 399.669 599.631 399.8C599.5 399.93 599.332 399.996 599.127 399.996H593.975V415.48C593.975 415.666 593.91 415.825 593.779 415.956C593.648 416.086 593.48 416.152 593.275 416.152H590.699Z" fill="white"/>
<path d="M603.29 416.152C603.103 416.152 602.945 416.086 602.814 415.956C602.683 415.825 602.618 415.657 602.618 415.452V397.252C602.618 397.046 602.683 396.878 602.814 396.748C602.945 396.617 603.113 396.552 603.318 396.552H605.838C606.043 396.552 606.202 396.617 606.314 396.748C606.445 396.878 606.51 397.046 606.51 397.252V410.104L615.722 397C615.797 396.906 615.899 396.813 616.03 396.72C616.161 396.608 616.329 396.552 616.534 396.552H618.858C619.045 396.552 619.203 396.617 619.334 396.748C619.465 396.878 619.53 397.046 619.53 397.252V415.48C619.53 415.666 619.465 415.825 619.334 415.956C619.203 416.086 619.045 416.152 618.858 416.152H616.338C616.133 416.152 615.965 416.086 615.834 415.956C615.703 415.825 615.638 415.666 615.638 415.48V402.88L606.454 415.704C606.398 415.778 606.305 415.872 606.174 415.984C606.043 416.096 605.866 416.152 605.642 416.152H603.29Z" fill="white"/>
<path d="M635.322 416.152C635.135 416.152 634.967 416.086 634.818 415.956C634.687 415.825 634.622 415.666 634.622 415.48V409.068H630.506C629.199 409.068 628.051 408.825 627.062 408.34C626.072 407.836 625.307 407.126 624.766 406.212C624.224 405.278 623.954 404.168 623.954 402.88C623.954 401.722 624.215 400.668 624.738 399.716C625.26 398.764 626.035 397.998 627.062 397.42C628.107 396.841 629.395 396.552 630.926 396.552H637.842C638.047 396.552 638.206 396.617 638.318 396.748C638.448 396.878 638.514 397.037 638.514 397.224V415.48C638.514 415.666 638.448 415.825 638.318 415.956C638.206 416.086 638.047 416.152 637.842 416.152H635.322ZM624.122 416.152C623.972 416.152 623.842 416.096 623.73 415.984C623.618 415.872 623.562 415.732 623.562 415.564C623.562 415.47 623.59 415.368 623.646 415.256L628.266 407.724L631.962 408.34L627.79 415.396C627.678 415.582 627.538 415.76 627.37 415.928C627.22 416.077 626.987 416.152 626.67 416.152H624.122ZM631.094 405.904H634.622V399.66H631.094C630.104 399.66 629.33 399.968 628.77 400.584C628.228 401.181 627.958 401.956 627.958 402.908C627.958 403.878 628.219 404.625 628.742 405.148C629.264 405.652 630.048 405.904 631.094 405.904Z" fill="white"/>
<path d="M648.275 418.504C648.125 418.504 647.995 418.448 647.883 418.336C647.771 418.224 647.715 418.084 647.715 417.916C647.715 417.841 647.733 417.738 647.771 417.608L657.291 394.732C657.365 394.601 657.468 394.47 657.599 394.34C657.729 394.209 657.916 394.144 658.159 394.144H659.979C660.128 394.144 660.259 394.2 660.371 394.312C660.501 394.424 660.567 394.564 660.567 394.732C660.567 394.806 660.539 394.909 660.483 395.04L650.935 417.916C650.879 418.028 650.785 418.149 650.655 418.28C650.524 418.429 650.328 418.504 650.067 418.504H648.275Z" fill="white"/>
<path d="M668.512 416.152C668.362 416.152 668.222 416.096 668.092 415.984C667.98 415.872 667.924 415.732 667.924 415.564C667.924 415.489 667.942 415.405 667.98 415.312L674.728 397.252C674.784 397.065 674.886 396.906 675.036 396.776C675.204 396.626 675.428 396.552 675.708 396.552H678.76C679.04 396.552 679.254 396.626 679.404 396.776C679.553 396.906 679.665 397.065 679.74 397.252L686.488 415.312C686.506 415.405 686.516 415.489 686.516 415.564C686.516 415.732 686.46 415.872 686.348 415.984C686.236 416.096 686.105 416.152 685.956 416.152H683.52C683.258 416.152 683.062 416.096 682.932 415.984C682.82 415.853 682.745 415.732 682.708 415.62L681.392 412.204H673.076L671.76 415.62C671.722 415.732 671.638 415.853 671.508 415.984C671.396 416.096 671.209 416.152 670.948 416.152H668.512ZM674.056 408.984H680.412L677.22 400.332L674.056 408.984Z" fill="white"/>
<path d="M696.64 416.432C694.904 416.432 693.429 416.133 692.216 415.536C691.021 414.92 690.107 414.052 689.472 412.932C688.837 411.793 688.483 410.43 688.408 408.844C688.389 408.078 688.38 407.257 688.38 406.38C688.38 405.502 688.389 404.662 688.408 403.86C688.483 402.292 688.837 400.938 689.472 399.8C690.125 398.661 691.049 397.793 692.244 397.196C693.457 396.58 694.922 396.272 696.64 396.272C697.909 396.272 699.048 396.44 700.056 396.776C701.064 397.112 701.923 397.578 702.632 398.176C703.341 398.754 703.892 399.436 704.284 400.22C704.676 401.004 704.881 401.853 704.9 402.768C704.919 402.936 704.863 403.076 704.732 403.188C704.62 403.3 704.48 403.356 704.312 403.356H701.652C701.447 403.356 701.279 403.309 701.148 403.216C701.017 403.104 700.924 402.926 700.868 402.684C700.569 401.452 700.056 400.612 699.328 400.164C698.6 399.716 697.695 399.492 696.612 399.492C695.361 399.492 694.363 399.846 693.616 400.556C692.869 401.246 692.468 402.394 692.412 404C692.356 405.53 692.356 407.098 692.412 408.704C692.468 410.309 692.869 411.466 693.616 412.176C694.363 412.866 695.361 413.212 696.612 413.212C697.695 413.212 698.6 412.988 699.328 412.54C700.056 412.073 700.569 411.233 700.868 410.02C700.924 409.758 701.017 409.581 701.148 409.488C701.279 409.394 701.447 409.348 701.652 409.348H704.312C704.48 409.348 704.62 409.404 704.732 409.516C704.863 409.628 704.919 409.768 704.9 409.936C704.881 410.85 704.676 411.7 704.284 412.484C703.892 413.268 703.341 413.958 702.632 414.556C701.923 415.134 701.064 415.592 700.056 415.928C699.048 416.264 697.909 416.432 696.64 416.432Z" fill="white"/>
<path d="M706.966 416.152C706.817 416.152 706.677 416.096 706.546 415.984C706.434 415.872 706.378 415.732 706.378 415.564C706.378 415.489 706.397 415.405 706.434 415.312L713.182 397.252C713.238 397.065 713.341 396.906 713.49 396.776C713.658 396.626 713.882 396.552 714.162 396.552H717.214C717.494 396.552 717.709 396.626 717.858 396.776C718.008 396.906 718.12 397.065 718.194 397.252L724.942 415.312C724.961 415.405 724.97 415.489 724.97 415.564C724.97 415.732 724.914 415.872 724.802 415.984C724.69 416.096 724.56 416.152 724.41 416.152H721.974C721.713 416.152 721.517 416.096 721.386 415.984C721.274 415.853 721.2 415.732 721.162 415.62L719.846 412.204H711.53L710.214 415.62C710.177 415.732 710.093 415.853 709.962 415.984C709.85 416.096 709.664 416.152 709.402 416.152H706.966ZM712.51 408.984H718.866L715.674 400.332L712.51 408.984Z" fill="white"/>
<path d="M728.207 416.152C728.02 416.152 727.861 416.086 727.731 415.956C727.6 415.825 727.535 415.666 727.535 415.48V397.252C727.535 397.046 727.6 396.878 727.731 396.748C727.861 396.617 728.02 396.552 728.207 396.552H739.631C739.836 396.552 740.004 396.617 740.135 396.748C740.265 396.878 740.331 397.046 740.331 397.252V399.212C740.331 399.398 740.265 399.557 740.135 399.688C740.004 399.818 739.836 399.884 739.631 399.884H731.427V415.48C731.427 415.666 731.361 415.825 731.231 415.956C731.119 416.086 730.96 416.152 730.755 416.152H728.207Z" fill="white"/>
<path d="M741.484 416.152C741.334 416.152 741.194 416.096 741.064 415.984C740.952 415.872 740.896 415.732 740.896 415.564C740.896 415.489 740.914 415.405 740.952 415.312L747.7 397.252C747.756 397.065 747.858 396.906 748.008 396.776C748.176 396.626 748.4 396.552 748.68 396.552H751.732C752.012 396.552 752.226 396.626 752.376 396.776C752.525 396.906 752.637 397.065 752.712 397.252L759.46 415.312C759.478 415.405 759.488 415.489 759.488 415.564C759.488 415.732 759.432 415.872 759.32 415.984C759.208 416.096 759.077 416.152 758.928 416.152H756.492C756.23 416.152 756.034 416.096 755.904 415.984C755.792 415.853 755.717 415.732 755.68 415.62L754.364 412.204H746.048L744.732 415.62C744.694 415.732 744.61 415.853 744.48 415.984C744.368 416.096 744.181 416.152 743.92 416.152H741.484ZM747.028 408.984H753.384L750.192 400.332L747.028 408.984Z" fill="white"/>
<path d="M761.268 420.044C761.081 420.044 760.922 419.978 760.792 419.848C760.661 419.736 760.596 419.577 760.596 419.372V413.324C760.596 413.137 760.661 412.978 760.792 412.848C760.922 412.717 761.081 412.652 761.268 412.652H761.828C762.276 412.652 762.658 412.446 762.976 412.036C763.293 411.606 763.554 410.99 763.76 410.188C763.965 409.366 764.114 408.358 764.208 407.164C764.301 405.969 764.348 404.606 764.348 403.076V397.224C764.348 397.037 764.413 396.878 764.544 396.748C764.674 396.617 764.842 396.552 765.048 396.552H777.06C777.265 396.552 777.433 396.617 777.564 396.748C777.694 396.878 777.76 397.046 777.76 397.252V412.652H779.104C779.309 412.652 779.477 412.717 779.608 412.848C779.738 412.978 779.804 413.137 779.804 413.324V419.372C779.804 419.577 779.738 419.736 779.608 419.848C779.477 419.978 779.309 420.044 779.104 420.044H776.584C776.378 420.044 776.21 419.978 776.08 419.848C775.968 419.736 775.912 419.577 775.912 419.372V416.152H764.488V419.372C764.488 419.577 764.422 419.736 764.292 419.848C764.161 419.978 763.993 420.044 763.788 420.044H761.268ZM766.588 412.652H773.868V400.052H768.128V403.58C768.128 405.894 767.997 407.789 767.736 409.264C767.474 410.72 767.092 411.849 766.588 412.652Z" fill="white"/>
<path fill-rule="evenodd" clip-rule="evenodd" d="M396.281 256.765H351.457C350.009 256.765 348.834 257.683 348.834 258.812V310.375C348.834 311.503 350.009 312.422 351.457 312.422H372.438C373.886 312.422 375.061 311.503 375.061 310.375V266.707H396.281C396.984 266.707 397.555 266.261 397.555 265.713V257.758C397.555 257.211 396.984 256.765 396.281 256.765Z" fill="white"/>
<path fill-rule="evenodd" clip-rule="evenodd" d="M496.921 271.873C498.127 271.873 499.612 272.731 500.233 273.788L521.809 310.507C522.43 311.563 521.953 312.421 520.747 312.421H503.262C502.056 312.421 500.574 311.563 499.95 310.507L483.386 282.315L466.819 310.507C466.198 311.563 464.716 312.421 463.511 312.421H446.025C444.816 312.421 444.342 311.563 444.963 310.507L466.539 273.788C467.16 272.731 468.645 271.873 469.851 271.873H496.921Z" fill="white"/>
<path fill-rule="evenodd" clip-rule="evenodd" d="M444.69 286.255C444.69 278.322 437.341 271.879 428.288 271.879H401.93C392.878 271.879 385.528 278.322 385.528 286.255V298.882C385.528 306.815 392.878 313.255 401.93 313.255H428.288C437.341 313.255 444.69 306.815 444.69 298.882V286.255ZM424.951 286.821C424.951 283.516 421.887 280.831 418.113 280.831H412.105C408.332 280.831 405.268 283.516 405.268 286.821V299.609C405.268 302.916 408.332 305.602 412.105 305.602H418.113C421.887 305.602 424.951 302.916 424.951 299.609V286.821Z" fill="white"/>
<path fill-rule="evenodd" clip-rule="evenodd" d="M581.244 286.255C581.244 278.322 573.894 271.879 564.842 271.879H538.484C529.431 271.879 522.082 278.322 522.082 286.255V298.882C522.082 306.815 529.431 313.255 538.484 313.255H564.842C573.894 313.255 581.244 306.815 581.244 298.882V286.255ZM561.504 286.821C561.504 283.516 558.44 280.831 554.667 280.831H548.658C544.885 280.831 541.821 283.516 541.821 286.821V299.609C541.821 302.916 544.885 305.602 548.658 305.602H554.667C558.44 305.602 561.504 302.916 561.504 299.609V286.821Z" fill="white"/>
<path fill-rule="evenodd" clip-rule="evenodd" d="M646.256 300.609C646.331 300.043 646.374 298.294 642.779 298.294H630.191C627.862 298.294 626.617 300.074 626.588 300.3C626.197 303.281 623.301 305.602 619.796 305.602H613.789C610.014 305.602 606.95 302.916 606.95 299.609V286.821C606.95 283.513 610.014 280.831 613.789 280.831H619.796C622.935 280.831 625.584 282.689 626.384 285.214C626.545 285.727 626.976 287.211 629.764 287.211H643.015C646.643 287.211 646.335 285.139 646.263 284.592C645.323 277.442 638.383 271.879 629.972 271.879H603.613C594.559 271.879 587.21 278.322 587.21 286.252V298.882C587.21 306.815 594.559 313.255 603.613 313.255H629.972C638.358 313.255 645.28 307.73 646.256 300.609Z" fill="white"/>
<path fill-rule="evenodd" clip-rule="evenodd" d="M662.087 345.851L672.891 335.224C673.946 334.186 675.765 333.344 676.949 333.344H694.123C695.307 333.344 695.414 334.186 694.36 335.224L674.768 354.495C675.726 354.872 676.72 355.426 677.484 356.042L697.786 372.483C699.186 373.618 699.272 374.54 697.976 374.54H678.754C677.459 374.54 675.27 373.618 673.87 372.483L662.087 362.94V372.571C662.087 373.659 661.078 374.54 659.84 374.54H641.867C640.625 374.54 639.617 373.659 639.617 372.571V335.403C639.617 334.318 640.625 333.435 641.867 333.435H659.84C661.078 333.435 662.087 334.318 662.087 335.403V345.851Z" fill="white"/>
<path fill-rule="evenodd" clip-rule="evenodd" d="M221.758 345.853L232.294 335.489C233.499 334.305 235.438 333.344 236.623 333.344H253.797C254.981 333.344 254.965 334.305 253.761 335.489L234.469 354.466C235.385 354.844 236.373 355.41 237.154 356.043L257.457 372.485C258.858 373.62 259.074 374.54 257.939 374.54H238.136C237.001 374.54 234.942 373.62 233.542 372.485L221.758 362.943V372.295C221.758 373.534 220.751 374.541 219.511 374.541H201.538C200.297 374.541 199.291 373.534 199.291 372.295V335.682C199.291 334.443 200.297 333.436 201.538 333.436H219.511C220.751 333.436 221.758 334.443 221.758 335.682V345.853Z" fill="white"/>
<path fill-rule="evenodd" clip-rule="evenodd" d="M568.17 374.42C568.266 374.439 568.378 374.448 568.5 374.448H586.186C588.016 374.448 589.48 373.241 590.306 372.543L610.874 353.904V372.436C610.874 373.546 611.903 374.448 613.17 374.448H631.542C632.809 374.448 633.839 373.546 633.839 372.436V335.356C633.839 334.243 632.809 333.344 631.542 333.344H613.17C611.01 333.344 609.833 334.485 608.936 335.246L588.393 354.228V335.277C588.393 334.208 587.406 333.344 586.186 333.344H568.532C567.312 333.344 566.325 334.208 566.325 335.277V372.512C566.325 373.474 567.125 374.269 568.17 374.42Z" fill="white"/>
<path fill-rule="evenodd" clip-rule="evenodd" d="M521.351 359.243H536.835V372.436C536.835 373.546 537.861 374.448 539.128 374.448H557.5C558.766 374.448 559.796 373.546 559.796 372.436V335.356C559.796 334.243 558.766 333.344 557.5 333.344H539.128C537.861 333.344 536.835 334.243 536.835 335.356V348.732H521.351V335.356C521.351 334.243 520.321 333.344 519.055 333.344H500.683C499.416 333.344 498.386 334.243 498.386 335.356V372.436C498.386 373.546 499.416 374.448 500.683 374.448H519.055C520.321 374.448 521.351 373.546 521.351 372.436V359.243Z" fill="white"/>
<path fill-rule="evenodd" clip-rule="evenodd" d="M383.724 374.449H425.784C426.555 374.449 427.18 373.977 427.18 373.402V365.031C427.18 364.453 426.555 363.984 425.784 363.984H403.207V358.705H421.063C421.848 358.705 422.485 358.237 422.485 357.658V349.288C422.485 348.71 421.848 348.241 421.063 348.241H403.207V343.764H425.784C426.555 343.764 427.18 343.295 427.18 342.717V334.347C427.18 333.771 426.555 333.3 425.784 333.3H386.63C386.494 333.3 386.363 333.315 386.239 333.344H383.724C382.529 333.344 381.559 334.07 381.559 334.966V372.826C381.559 373.719 382.529 374.449 383.724 374.449Z" fill="white"/>
<path fill-rule="evenodd" clip-rule="evenodd" d="M353.276 364.815V372.741C353.276 373.735 354.196 374.54 355.328 374.54H371.746C372.879 374.54 373.798 373.735 373.798 372.741V335.233C373.798 334.243 372.879 333.435 371.746 333.435H355.328C354.196 333.435 353.276 334.243 353.276 335.233V358.252H345.09C342.806 358.252 342.1 356.498 342.1 355.143V335.032C342.1 334.152 341.283 333.435 340.277 333.435H325.69C324.684 333.435 323.867 334.152 323.867 335.032V359.026C323.867 361.293 325.355 364.815 330.944 364.815H353.276Z" fill="white"/>
<path fill-rule="evenodd" clip-rule="evenodd" d="M317.83 347.675C317.83 339.742 310.481 333.3 301.428 333.3H275.07C266.017 333.3 258.668 339.742 258.668 347.675V360.303C258.668 368.235 266.017 374.675 275.07 374.675H301.428C310.481 374.675 317.83 368.235 317.83 360.303V347.675ZM298.09 348.241C298.09 344.936 295.027 342.251 291.253 342.251H285.245C281.471 342.251 278.408 344.936 278.408 348.241V361.029C278.408 364.337 281.471 367.022 285.245 367.022H291.253C295.027 367.022 298.09 364.337 298.09 361.029V348.241Z" fill="white"/>
<path fill-rule="evenodd" clip-rule="evenodd" d="M759.707 347.675C759.707 339.742 752.357 333.3 743.305 333.3H716.946C707.894 333.3 700.544 339.742 700.544 347.675V360.303C700.544 368.235 707.894 374.675 716.946 374.675H743.305C752.357 374.675 759.707 368.235 759.707 360.303V347.675ZM739.967 348.241C739.967 344.936 736.903 342.251 733.13 342.251H727.121C723.348 342.251 720.284 344.936 720.284 348.241V361.029C720.284 364.337 723.348 367.022 727.121 367.022H733.13C736.903 367.022 739.967 364.337 739.967 361.029V348.241Z" fill="white"/>
<path fill-rule="evenodd" clip-rule="evenodd" d="M434.813 374.448H478.791C486.416 374.448 492.606 369.021 492.606 362.34C492.606 358.435 490.492 354.957 487.209 352.744C488.601 350.794 489.409 348.489 489.409 346.024C489.409 339.025 482.925 333.344 474.937 333.344H450.088C449.974 333.344 449.859 333.344 449.748 333.347C449.704 333.344 449.665 333.344 449.622 333.344H434.813C433.791 333.344 432.962 334.07 432.962 334.966V372.826C432.962 373.719 433.791 374.448 434.813 374.448ZM450.53 358.001V366.475C450.788 366.506 451.05 366.519 451.319 366.519H468.08C471.396 366.519 474.09 365.226 474.09 362.321C474.09 359.416 471.396 357.954 468.08 357.954H451.319C451.05 357.954 450.788 357.969 450.53 358.001ZM450.53 341.751V349.496C450.788 349.527 451.05 349.543 451.319 349.543H463.864C467.179 349.543 469.871 348.625 469.871 345.719C469.871 342.814 467.179 341.707 463.864 341.707H451.319C451.05 341.707 450.788 341.723 450.53 341.751Z" fill="white"/>
<path fill-rule="evenodd" clip-rule="evenodd" d="M768.208 374.448H812.186C819.811 374.448 826 369.021 826 362.34C826 358.435 823.887 354.957 820.604 352.744C821.996 350.794 822.803 348.489 822.803 346.024C822.803 339.025 816.319 333.344 808.332 333.344H783.483C783.368 333.344 783.253 333.344 783.142 333.347C783.099 333.344 783.06 333.344 783.016 333.344H768.208C767.186 333.344 766.356 334.07 766.356 334.966V372.826C766.356 373.719 767.186 374.448 768.208 374.448ZM783.924 358.001V366.475C784.183 366.506 784.445 366.519 784.714 366.519H801.475C804.79 366.519 807.485 365.226 807.485 362.321C807.485 359.416 804.79 357.954 801.475 357.954H784.714C784.445 357.954 784.183 357.969 783.924 358.001ZM783.924 341.751V349.496C784.183 349.527 784.445 349.543 784.714 349.543H797.258C800.574 349.543 803.265 348.625 803.265 345.719C803.265 342.814 800.574 341.707 797.258 341.707H784.714C784.445 341.707 784.183 341.723 783.924 341.751Z" fill="white"/>
</svg>
