<?xml version="1.0" encoding="utf-8"?>
<!-- Generator: Adobe Illustrator 24.1.2, SVG Export Plug-In . SVG Version: 6.00 Build 0)  -->
<svg version="1.1" id="Слой_1" xmlns="http://www.w3.org/2000/svg" xmlns:xlink="http://www.w3.org/1999/xlink" x="0px" y="0px"
	 viewBox="0 0 410 326" style="enable-background:new 0 0 410 326;" xml:space="preserve">
<style type="text/css">
	.st0{fill-rule:evenodd;clip-rule:evenodd;fill:#DEB200;}
</style>
<path class="st0" d="M475.9,325.9c0.9,0,1.3-1.1,0.7-1.7l-90.9-90.9c-0.4-0.4-1-0.4-1.4,0l-47.5,47.5c-0.4,0.4-1,0.4-1.4,0l-12.2-12
	c-0.4-0.4-1-0.4-1.4,0l-56.4,55.5c-0.6,0.6-0.2,1.7,0.7,1.7h115.2l0,0l0,0l0,0H475.9z M59.1,71.4l-44.2,44.2L0,100.8l59.4-59.4
	l14.8,14.8L118.5,12l14.8,14.8L73.9,86.2L59.1,71.4z"/>
</svg>
