<?xml version="1.0" encoding="utf-8"?>
<!-- Generator: Adobe Illustrator 24.1.2, SVG Export Plug-In . SVG Version: 6.00 Build 0)  -->
<svg version="1.1" id="Слой_1" xmlns="http://www.w3.org/2000/svg" xmlns:xlink="http://www.w3.org/1999/xlink" x="0px" y="0px"
	 viewBox="0 0 410 326" style="enable-background:new 0 0 410 326;" xml:space="preserve">
<style type="text/css">
	.st0{fill-rule:evenodd;clip-rule:evenodd;fill:#DEB200;}
</style>
<path class="st0" d="M266.2,23.6c-2,2-3.7,4.3-5,6.7c-3.9,7.1,3,14.1,11.1,14.1l0,0c8.1,0,14.5,7,18.4,14.1c1.3,2.4,3,4.7,5,6.7
	c5.5,5.5,13,8.6,20.9,8.6s15.3-3.1,20.9-8.6c5.5-5.5,8.6-13,8.6-20.8c0,7.8,3.1,15.3,8.6,20.8c5.5,5.5,13,8.6,20.9,8.6
	s15.3-3.1,20.9-8.6l0,0c9-9-1.7-20.9-14.5-20.9h-6.3H346h6.3c12.8,0,23.6-11.8,14.5-20.9l0,0c-5.5-5.5-13-8.6-20.9-8.6
	s-15.3,3.1-20.9,8.6c-5.5,5.5-8.6,13-8.6,20.9c0-7.8-3.1-15.3-8.6-20.9c-5.5-5.5-13-8.6-20.9-8.6S271.7,18.1,266.2,23.6z
 M-20.5,288.5c-2.9,2.9-4.5,6.8-4.5,11h11.6c0-1,0.4-2,1.1-2.7c0.7-0.7,1.7-1.1,2.7-1.1s2,0.4,2.7,1.1c0.7,0.7,1.1,1.7,1.1,2.7
	c0,4.1,1.6,8.1,4.5,11c2.9,2.9,6.8,4.5,10.9,4.5s8-1.6,10.9-4.5c2.9-2.9,4.5-6.8,4.5-11c0-1,0.4-2,1.1-2.7c0.7-0.7,1.7-1.1,2.7-1.1
	c1,0,2,0.4,2.7,1.1c0.7,0.7,1.1,1.7,1.1,2.7c0,4.1,1.6,8.1,4.5,11c2.9,2.9,6.8,4.5,10.9,4.5c4.1,0,8-1.6,10.9-4.5
	c2.9-2.9,4.5-6.8,4.5-11c0-1,0.4-2,1.1-2.7c0.7-0.7,1.7-1.1,2.7-1.1c1,0,2,0.4,2.7,1.1c0.7,0.7,1.1,1.7,1.1,2.7
	c0,4.1,1.6,8.1,4.5,11c2.9,2.9,6.8,4.5,10.9,4.5s8-1.6,10.9-4.5c2.9-2.9,4.5-6.8,4.5-11c0-1,0.4-2,1.1-2.7c0.7-0.7,1.7-1.1,2.7-1.1
	c1,0,2,0.4,2.7,1.1c0.7,0.7,1.1,1.7,1.1,2.7c0,4.1,1.6,8.1,4.5,11c2.9,2.9,6.8,4.5,10.9,4.5c4.1,0,8-1.6,10.9-4.5
	c2.9-2.9,4.5-6.8,4.5-11h-11.6c0,1-0.4,2-1.1,2.7c-0.7,0.7-1.7,1.1-2.7,1.1s-2-0.4-2.7-1.1c-0.7-0.7-1.1-1.7-1.1-2.7
	c0-4.1-1.6-8.1-4.5-11c-2.9-2.9-6.8-4.5-10.9-4.5c-4.1,0-8,1.6-10.9,4.5c-2.9,2.9-4.5,6.8-4.5,11c0,1-0.4,2-1.1,2.7
	c-0.7,0.7-1.7,1.1-2.7,1.1c-1,0-2-0.4-2.7-1.1c-0.7-0.7-1.1-1.7-1.1-2.7c0-4.1-1.6-8.1-4.5-11c-2.9-2.9-6.8-4.5-10.9-4.5
	c-4.1,0-8,1.6-10.9,4.5c-2.9,2.9-4.5,6.8-4.5,11c0,1-0.4,2-1.1,2.7c-0.7,0.7-1.7,1.1-2.7,1.1c-1,0-2-0.4-2.7-1.1
	c-0.7-0.7-1.1-1.7-1.1-2.7c0-4.1-1.6-8.1-4.5-11c-2.9-2.9-6.8-4.5-10.9-4.5c-4.1,0-8,1.6-10.9,4.5c-2.9,2.9-4.5,6.8-4.5,11
	c0,1-0.4,2-1.1,2.7c-0.7,0.7-1.7,1.1-2.7,1.1c-1,0-2-0.4-2.7-1.1c-0.7-0.7-1.1-1.7-1.1-2.7c0-4.1-1.6-8.1-4.5-11
	c-2.9-2.9-6.8-4.5-10.9-4.5C-13.7,284-17.6,285.6-20.5,288.5z M-59.5,251.5c-2.9,2.9-4.5,6.8-4.5,11h11.6c0-1,0.4-2,1.1-2.7
	c0.7-0.7,1.7-1.1,2.7-1.1c1,0,2,0.4,2.7,1.1c0.7,0.7,1.1,1.7,1.1,2.7c0,4.1,1.6,8.1,4.5,11c2.9,2.9,6.8,4.5,10.9,4.5s8-1.6,10.9-4.5
	c2.9-2.9,4.5-6.8,4.5-11c0-1,0.4-2,1.1-2.7c0.7-0.7,1.7-1.1,2.7-1.1c1,0,2,0.4,2.7,1.1c0.7,0.7,1.1,1.7,1.1,2.7
	c0,4.1,1.6,8.1,4.5,11c2.9,2.9,6.8,4.5,10.9,4.5c4.1,0,8-1.6,10.9-4.5c2.9-2.9,4.5-6.8,4.5-11c0-1,0.4-2,1.1-2.7
	c0.7-0.7,1.7-1.1,2.7-1.1c1,0,2,0.4,2.7,1.1c0.7,0.7,1.1,1.7,1.1,2.7c0,4.1,1.6,8.1,4.5,11c2.9,2.9,6.8,4.5,10.9,4.5s8-1.6,10.9-4.5
	c2.9-2.9,4.5-6.8,4.5-11c0-1,0.4-2,1.1-2.7c0.7-0.7,1.7-1.1,2.7-1.1c1,0,2,0.4,2.7,1.1c0.7,0.7,1.1,1.7,1.1,2.7
	c0,4.1,1.6,8.1,4.5,11c2.9,2.9,6.8,4.5,10.9,4.5c4.1,0,8-1.6,10.9-4.5c2.9-2.9,4.5-6.8,4.5-11H90.4c0,1-0.4,2-1.1,2.7
	c-0.7,0.7-1.7,1.1-2.7,1.1c-1,0-2-0.4-2.7-1.1c-0.7-0.7-1.1-1.7-1.1-2.7c0-4.1-1.6-8.1-4.5-11c-2.9-2.9-6.8-4.5-10.9-4.5
	s-8,1.6-10.9,4.5c-2.9,2.9-4.5,6.8-4.5,11c0,1-0.4,2-1.1,2.7c-0.7,0.7-1.7,1.1-2.7,1.1c-1,0-2-0.4-2.7-1.1c-0.7-0.7-1.1-1.7-1.1-2.7
	c0-4.1-1.6-8.1-4.5-11c-2.9-2.9-6.8-4.5-10.9-4.5c-4.1,0-8,1.6-10.9,4.5c-2.9,2.9-4.5,6.8-4.5,11c0,1-0.4,2-1.1,2.7
	c-0.7,0.7-1.7,1.1-2.7,1.1c-1,0-2-0.4-2.7-1.1c-0.7-0.7-1.1-1.7-1.1-2.7c0-4.1-1.6-8.1-4.5-11c-2.9-2.9-6.8-4.5-10.9-4.5
	c-4.1,0-8,1.6-10.9,4.5c-2.9,2.9-4.5,6.8-4.5,11c0,1-0.4,2-1.1,2.7c-0.7,0.7-1.7,1.1-2.7,1.1c-1,0-2-0.4-2.7-1.1
	c-0.7-0.7-1.1-1.7-1.1-2.7c0-4.1-1.6-8.1-4.5-11c-2.9-2.9-6.8-4.5-10.9-4.5C-52.7,247-56.6,248.6-59.5,251.5z M-97.5,214.5
	c-2.9,2.9-4.5,6.8-4.5,11h11.6c0-1,0.4-2,1.1-2.7c0.7-0.7,1.7-1.1,2.7-1.1c1,0,2,0.4,2.7,1.1c0.7,0.7,1.1,1.7,1.1,2.7
	c0,4.1,1.6,8.1,4.5,11c2.9,2.9,6.8,4.5,10.9,4.5s8-1.6,10.9-4.5c2.9-2.9,4.5-6.8,4.5-11c0-1,0.4-2,1.1-2.7c0.7-0.7,1.7-1.1,2.7-1.1
	c1,0,2,0.4,2.7,1.1c0.7,0.7,1.1,1.7,1.1,2.7c0,4.1,1.6,8.1,4.5,11c2.9,2.9,6.8,4.5,10.9,4.5c4.1,0,8-1.6,10.9-4.5
	c2.9-2.9,4.5-6.8,4.5-11c0-1,0.4-2,1.1-2.7c0.7-0.7,1.7-1.1,2.7-1.1s2,0.4,2.7,1.1c0.7,0.7,1.1,1.7,1.1,2.7c0,4.1,1.6,8.1,4.5,11
	c2.9,2.9,6.8,4.5,10.9,4.5s8-1.6,10.9-4.5c2.9-2.9,4.5-6.8,4.5-11c0-1,0.4-2,1.1-2.7c0.7-0.7,1.7-1.1,2.7-1.1c1,0,2,0.4,2.7,1.1
	c0.7,0.7,1.1,1.7,1.1,2.7c0,4.1,1.6,8.1,4.5,11c2.9,2.9,6.8,4.5,10.9,4.5c4.1,0,8-1.6,10.9-4.5c2.9-2.9,4.5-6.8,4.5-11H52.4
	c0,1-0.4,2-1.1,2.7c-0.7,0.7-1.7,1.1-2.7,1.1c-1,0-2-0.4-2.7-1.1c-0.7-0.7-1.1-1.7-1.1-2.7c0-4.1-1.6-8.1-4.5-11
	c-2.9-2.9-6.8-4.5-10.9-4.5s-8,1.6-10.9,4.5c-2.9,2.9-4.5,6.8-4.5,11c0,1-0.4,2-1.1,2.7c-0.7,0.7-1.7,1.1-2.7,1.1
	c-1,0-2-0.4-2.7-1.1c-0.7-0.7-1.1-1.7-1.1-2.7c0-4.1-1.6-8.1-4.5-11c-2.9-2.9-6.8-4.5-10.9-4.5c-4.1,0-8,1.6-10.9,4.5
	c-2.9,2.9-4.5,6.8-4.5,11c0,1-0.4,2-1.1,2.7c-0.7,0.7-1.7,1.1-2.7,1.1c-1,0-2-0.4-2.7-1.1c-0.7-0.7-1.1-1.7-1.1-2.7
	c0-4.1-1.6-8.1-4.5-11c-2.9-2.9-6.8-4.5-10.9-4.5c-4.1,0-8,1.6-10.9,4.5c-2.9,2.9-4.5,6.8-4.5,11c0,1-0.4,2-1.1,2.7
	c-0.7,0.7-1.7,1.1-2.7,1.1c-1,0-2-0.4-2.7-1.1c-0.7-0.7-1.1-1.7-1.1-2.7c0-4.1-1.6-8.1-4.5-11c-2.9-2.9-6.8-4.5-10.9-4.5
	C-90.7,210-94.6,211.6-97.5,214.5z"/>
</svg>
