<?xml version="1.0" encoding="utf-8"?>
<!-- Generator: Adobe Illustrator 24.1.2, SVG Export Plug-In . SVG Version: 6.00 Build 0)  -->
<svg version="1.1" id="Слой_1" xmlns="http://www.w3.org/2000/svg" xmlns:xlink="http://www.w3.org/1999/xlink" x="0px" y="0px"
	 viewBox="0 0 410 326" style="enable-background:new 0 0 410 326;" xml:space="preserve">
<style type="text/css">
	.st0{fill-rule:evenodd;clip-rule:evenodd;fill:#E65118;}
</style>
<path class="st0" d="M59.1,71.4l-44.2,44.2L0,100.8l59.4-59.4l14.8,14.8L118.5,12l14.8,14.8L73.9,86.2L59.1,71.4z M259.3,44
	c-0.9,0-1.3-1.1-0.7-1.7l41.7-41.7c0.4-0.4,1-0.4,1.4,0l21.7,21.7c0.4,0.4,1,0.4,1.4,0l5-5c0.4-0.4,1-0.4,1.4,0l25.4,25
	c0.6,0.6,0.2,1.7-0.7,1.7h-53.2c0,0,0,0,0,0l0,0l0,0H259.3z"/>
</svg>
