<?xml version="1.0" encoding="utf-8"?>
<!-- Generator: Adobe Illustrator 24.1.2, SVG Export Plug-In . SVG Version: 6.00 Build 0)  -->
<svg version="1.1" id="Слой_1" xmlns="http://www.w3.org/2000/svg" xmlns:xlink="http://www.w3.org/1999/xlink" x="0px" y="0px"
	 viewBox="0 0 410 326" style="enable-background:new 0 0 410 326;" xml:space="preserve">
<style type="text/css">
	.st0{fill:#E65118;}
</style>
<path class="st0" d="M341.6,11c-0.4-1.1,1-1.9,1.7-1L365,36.4c0.3,0.3,0.7,0.5,1.1,0.3l31.9-12c1.1-0.4,1.9,1,1,1.7L372.6,48
	c-0.3,0.3-0.5,0.7-0.3,1.1l12,31.9c0.4,1.1-1,1.9-1.7,1L361,55.6c-0.3-0.3-0.7-0.5-1.1-0.3l-31.9,12c-1.1,0.4-1.9-1-1-1.7L353.4,44
	c0.3-0.3,0.5-0.7,0.3-1.1L341.6,11z M205.7,76c4.1,0,5.5,5.4,2,7.5l-68,39.3c-1.2,0.7-2,2-2,3.5l-0.1,78.5c0,4.1-5.4,5.5-7.5,2
	l-39.3-68c-0.7-1.2-2-2-3.5-2l-78.5-0.1c-4.1,0-5.5-5.4-2-7.5l68-39.3c1.2-0.7,2-2,2-3.5L77,7.9c0-4.1,5.4-5.5,7.5-2l39.3,68
	c0.7,1.2,2,2,3.5,2L205.7,76z M33.5,201l5,72.4c0.1,1.7,2.2,2.5,3.4,1.3l50.4-52.2l-42.7,58.7c-1,1.4,0.1,3.3,1.8,3.2l72.2-7.6
	l-70.4,17.5c-1.7,0.4-2.1,2.6-0.6,3.6l60.2,40.5l-65.2-31.9c-1.6-0.8-3.3,0.7-2.8,2.3l20.1,69.7l-29.5-66.3c-0.7-1.6-3-1.6-3.7,0
	L2.2,378.5l20.1-69.7c0.5-1.7-1.2-3.1-2.8-2.3l-65.2,31.9l60.2-40.5c1.4-1,1-3.2-0.6-3.6l-70.4-17.5l72.2,7.6
	c1.7,0.2,2.8-1.8,1.8-3.2l-42.7-58.7l50.4,52.2c1.2,1.2,3.3,0.5,3.4-1.3L33.5,201z"/>
</svg>
