<svg width="200" height="201" viewBox="0 0 200 201" fill="none" xmlns="http://www.w3.org/2000/svg">
<path d="M0.5 96.7791C0.5 43.9509 43.3257 1.12524 96.1538 1.12524C98.0019 1.12524 99.5 2.62337 99.5 4.4714V80.6252C99.5 91.3948 90.7695 100.125 80 100.125H3.84615C1.99812 100.125 0.5 98.6271 0.5 96.7791Z" stroke="#242120"/>
<path d="M100.5 20.6252C100.5 9.85569 109.23 1.12524 120 1.12524H196.154C198.002 1.12524 199.5 2.62337 199.5 4.4714C199.5 57.2996 156.674 100.125 103.846 100.125C101.998 100.125 100.5 98.6271 100.5 96.7791V20.6252Z" stroke="#242120"/>
<path d="M0.5 120.625C0.5 109.855 9.23045 101.125 20 101.125H96.1538C98.0019 101.125 99.5 102.623 99.5 104.471C99.5 157.299 56.6743 200.125 3.84615 200.125C1.99812 200.125 0.5 198.627 0.5 196.779V120.625Z" stroke="#242120"/>
</svg>
