<svg width="128" height="51" viewBox="0 0 128 51" fill="none" xmlns="http://www.w3.org/2000/svg">
<g clip-path="url(#clip0_725_1476)">
<mask id="mask0_725_1476" style="mask-type:luminance" maskUnits="userSpaceOnUse" x="0" y="7" width="37" height="37">
<path fill-rule="evenodd" clip-rule="evenodd" d="M9.32518 7.91178L10.8568 7.89551L26.7875 7.90202C27.0294 7.90419 27.1802 7.90744 27.3299 7.91178C28.1195 7.93239 28.9168 7.97795 29.6977 8.11788C30.4801 8.24988 31.2385 8.49699 31.9485 8.85117C32.6557 9.20697 33.3043 9.67125 33.8651 10.2277C34.4261 10.7816 34.8958 11.4208 35.2567 12.1217C35.6255 12.8344 35.8566 13.5644 35.9987 14.3476C36.1397 15.12 36.1863 15.9075 36.2069 16.6885C36.2178 17.0465 36.2221 17.4044 36.2232 17.7635L36.2254 18.4024V32.5443C36.2254 32.9695 36.2254 33.3958 36.2232 33.8221C36.221 34.1801 36.2178 34.5381 36.2069 34.896C36.1852 35.6771 36.1397 36.4657 35.9987 37.2369C35.8648 38.012 35.6147 38.7625 35.2567 39.4629C34.8956 40.1639 34.426 40.8035 33.8651 41.3579C33.3021 41.9142 32.6554 42.3787 31.9485 42.7345C31.2385 43.0887 30.4801 43.3358 29.6977 43.4678C28.9168 43.6066 28.1195 43.6522 27.3299 43.6739L24.9501 43.6923L9.86644 43.6836C9.68599 43.6817 9.50556 43.678 9.32518 43.6728C8.53553 43.6532 7.73828 43.6066 6.95731 43.4678C6.17534 43.3357 5.41724 43.0886 4.70767 42.7345C3.28733 42.0196 2.12882 40.8747 1.39721 39.4629C1.03979 38.7623 0.789684 38.0119 0.655288 37.2369C0.514279 36.4657 0.468722 35.6771 0.448113 34.8971C0.437266 34.5392 0.434013 34.1801 0.431843 33.8221L0.428589 33.1811V19.0413C0.428589 18.6161 0.428589 18.1898 0.431843 17.7646C0.434013 17.4066 0.438351 17.0486 0.448113 16.6896C0.469807 15.9086 0.515363 15.121 0.655288 14.3487C0.789604 13.5737 1.03971 12.8234 1.39721 12.1228C2.12775 10.7105 3.28608 9.56542 4.70659 8.85117C5.41652 8.49698 6.17499 8.24987 6.95731 8.11788C7.73828 7.97903 8.53553 7.93347 9.32518 7.91178Z" fill="white"/>
</mask>
<g mask="url(#mask0_725_1476)">
<path d="M0.428589 7.89307H36.1718V43.6362H0.428589V7.89307Z" fill="#19AA1E"/>
<path fill-rule="evenodd" clip-rule="evenodd" d="M0.428589 7.89307H36.1718V19.6201L0.428589 14.036V7.89307Z" fill="#FFB919"/>
<path fill-rule="evenodd" clip-rule="evenodd" d="M0.428589 39.7257L36.1718 34.1416V43.6354H0.428589V39.7257Z" fill="#82D714"/>
<path fill-rule="evenodd" clip-rule="evenodd" d="M0.428589 13.3301L12.9051 15.2795C14.4581 14.2961 16.3058 13.7568 18.2996 13.7568C21.0614 13.7568 23.5437 14.7911 25.3501 16.6062C25.5776 16.8358 25.792 17.0752 25.9945 17.3243L36.1718 18.9142V20.3275L27.0278 18.8979C27.7121 20.2062 28.0706 21.6604 28.0729 23.1369C28.0729 25.0517 27.6451 26.9611 26.7592 28.878L26.7332 28.9365L26.3563 29.7423H25.4682C23.6314 29.7423 22.4141 30.2914 21.6169 31.265C20.992 32.0286 20.6303 33.0596 20.509 34.1838L20.5047 34.2184L20.4873 34.3982L20.4798 34.4762L20.4646 34.6289C20.418 35.1314 20.3877 35.5571 20.3715 35.9036L36.1718 33.4343V34.8477L0.428589 40.4329V39.0195L16.2462 36.548L16.2397 36.2307L16.2375 36.1419L16.2354 36.0953L16.2332 36.0249C16.2191 35.6405 16.1834 35.1477 16.1271 34.5498L16.1162 34.4361L16.0968 34.2401C15.9841 33.1094 15.6278 32.0665 15.0029 31.291C14.2155 30.3109 13.0101 29.7531 11.1874 29.7423H10.243L9.86718 28.9365C8.96393 27.0001 8.52639 25.0712 8.52639 23.1369C8.52639 20.7044 9.51303 18.3521 11.2502 16.6062L11.4018 16.4579L0.428589 14.7423V13.3301Z" fill="white"/>
<path fill-rule="evenodd" clip-rule="evenodd" d="M18.2996 15.1528C23.2902 15.1528 26.6769 18.9933 26.6769 23.1369C26.6769 24.8004 26.3141 26.5311 25.4671 28.3463C20.5578 28.3463 19.3459 31.8618 19.1162 34.0755L19.1011 34.2217C19.0242 35.0123 18.9787 35.6459 18.9668 36.1224L17.6368 36.3304V36.287C17.6183 35.5832 17.5706 34.8804 17.4939 34.1806L17.4906 34.1416C17.2784 31.9333 16.0924 28.3463 11.1332 28.3463C10.2852 26.5311 9.92242 24.8004 9.92242 23.1369C9.92242 18.9933 13.3101 15.1528 18.2996 15.1528Z" fill="#0073FA"/>
</g>
<path fill-rule="evenodd" clip-rule="evenodd" d="M53.3497 14.3936C47.8436 14.3936 43.7151 17.6675 43.7497 23.3534H48.867C48.7966 21.0791 50.2782 18.873 53.3497 18.873C55.6782 18.873 57.1609 20.3892 57.1609 22.3192C57.1609 24.3184 55.5363 25.4209 52.9262 26.6621C49.5028 28.2812 47.4558 29.0393 43.7497 30.2448V36.7927H62.8067V32.3123H50.667C52.4356 31.592 54.1576 30.8014 55.7139 30.0726C59.8424 28.1437 62.2771 25.9722 62.2771 22.0787C62.2771 17.3914 58.6782 14.3936 53.3497 14.3936ZM70.5709 19.2174H80.4525V14.738H65.6301V36.7927H70.5709V19.2174ZM88.2167 14.738H83.2759V36.7927H88.181L97.3921 22.6982V36.7927H102.333V14.738H97.3921L88.2167 28.8325V14.738ZM127.143 28.5217H122.026C121.249 30.9693 118.885 32.6577 116.097 32.6577C112.038 32.6577 109.391 29.2462 109.391 25.7653C109.391 22.2845 111.967 18.873 116.238 18.873C119.061 18.873 121.249 20.5625 122.026 23.009H127.143C126.402 18.0813 122.414 14.3936 116.097 14.3936C109.109 14.3936 104.45 19.1838 104.45 25.7653C104.45 32.3469 109.109 37.1371 116.097 37.1371C122.414 37.1371 126.402 33.5198 127.143 28.5217Z" fill="white"/>
</g>
<defs>
<clipPath id="clip0_725_1476">
<rect width="126.714" height="35.7399" fill="white" transform="translate(0.428589 7.89551)"/>
</clipPath>
</defs>
</svg>
