<svg width="151" height="51" viewBox="0 0 151 51" fill="none" xmlns="http://www.w3.org/2000/svg">
<g clip-path="url(#clip0_725_2813)">
<path d="M82.0636 38.4399H86.9614V21.7732H93.5659V17.0325H81.9894V38.4399H82.0636ZM25.9619 28.8103V17.0325H21.0641V38.7362H22.4741L34.7185 26.514V38.3658H39.6163V16.6621H38.1321L25.9619 28.8103ZM5.33189 27.6991C5.33189 24.2177 7.92919 21.3288 11.788 21.3288C13.7175 21.3288 15.5727 21.7732 17.5763 23.2547V18.0695C15.7953 17.1066 14.1627 16.6621 11.3428 16.6621C5.25768 16.6621 0.285706 21.6251 0.285706 27.6991C0.285706 33.7732 5.25768 38.7362 11.3428 38.7362C14.1627 38.7362 16.0921 38.2177 18.0216 37.1066V31.9214C16.1663 33.551 14.1627 34.0695 12.0107 34.0695C7.92919 34.0695 5.33189 31.1806 5.33189 27.6991ZM103.436 17.0325H96.3858V38.3658H101.284V31.9214H103.436C107.666 31.9214 111.153 28.588 111.153 24.4399C111.153 20.3658 107.666 17.0325 103.436 17.0325ZM103.436 27.3288H101.284V21.8473H103.436C104.994 21.8473 106.181 23.1066 106.181 24.588C106.181 26.0695 104.994 27.3288 103.436 27.3288ZM52.3801 24.588H48.2245V21.8473H56.9811V17.0325H43.2525V38.3658H52.3801C56.3132 38.3658 59.43 35.2547 59.43 31.4769C59.43 27.6251 56.239 24.588 52.3801 24.588ZM52.1575 33.6251H48.1503V29.0325H52.1575C53.4191 29.0325 54.458 30.0695 54.458 31.3288C54.458 32.588 53.4191 33.6251 52.1575 33.6251ZM123.695 16.6621C117.61 16.6621 112.638 21.6251 112.638 27.6991C112.638 33.7732 117.61 38.7362 123.695 38.7362C129.78 38.7362 134.752 33.7732 134.752 27.6991C134.752 21.6251 129.854 16.6621 123.695 16.6621ZM123.695 34.0695C120.133 34.0695 117.684 31.2547 117.684 27.6991C117.684 24.2177 120.133 21.3288 123.695 21.3288C127.257 21.3288 129.706 24.1436 129.706 27.6991C129.706 31.1806 127.331 34.0695 123.695 34.0695ZM80.3568 38.4399L70.6355 16.6621H69.0029L59.2815 38.4399H64.5504L65.8861 35.1806C67.1477 35.4769 68.4834 35.6991 69.8192 35.6991C71.1549 35.6991 72.4907 35.551 73.7522 35.1806L75.088 38.4399H80.3568ZM69.8192 31.4028C69.0771 31.4028 68.2608 31.3288 67.5187 31.1806L69.8192 25.6991L72.1196 31.1806C71.3033 31.3288 70.5612 31.4028 69.8192 31.4028Z" fill="white"/>
<path fill-rule="evenodd" clip-rule="evenodd" d="M141.876 0.736328H138.314C136.978 4.95855 133.639 8.36596 129.409 9.62522V13.1808C133.639 14.5141 137.052 17.8474 138.314 22.0697H141.876C143.211 17.8474 146.551 14.44 150.781 13.1808V9.62522C146.477 8.36596 143.137 4.95855 141.876 0.736328ZM140.021 16.1437C138.833 14.2919 137.201 12.6623 135.345 11.4771C137.201 10.2919 138.833 8.66225 140.021 6.8104C141.208 8.66225 142.84 10.2919 144.696 11.4771C142.84 12.6623 141.282 14.2178 140.021 16.1437Z" fill="#F3513E"/>
</g>
<defs>
<clipPath id="clip0_725_2813">
<rect width="150.495" height="38" fill="white" transform="translate(0.285706 0.736328)"/>
</clipPath>
</defs>
</svg>
